<svg xmlns="http://www.w3.org/2000/svg" width="56" height="56" viewBox="0 0 56 56">
  <g id="Group_159" data-name="Group 159" transform="translate(-1114.7 -1802.5)">
    <g id="Group_21742" data-name="Group 21742" transform="translate(-40 -101)">
      <path id="Path_493" data-name="Path 493" d="M1154.7,1917.5a14,14,0,0,1,14-14h28a14,14,0,0,1,14,14v28a14,14,0,0,1-14,14h-28a14,14,0,0,1-14-14Z" fill="#ffff42"/>
      <g id="Group_21741" data-name="Group 21741">
        <path id="Path_494" data-name="Path 494" d="M1177.37,1928.83a.673.673,0,0,0-.48.2.676.676,0,0,0,0,.94.673.673,0,0,0,.48.2h4.66a.67.67,0,0,0,0-1.34Zm-.67-2.66a.666.666,0,0,1,.19-.47.673.673,0,0,1,.48-.2h10.33a.683.683,0,0,1,.67.67.666.666,0,0,1-.67.66h-10.33a.649.649,0,0,1-.67-.66Z" fill="#171717"/>
        <path id="Path_495" data-name="Path 495" d="M1176.7,1934.16a.649.649,0,0,1,.67-.66h2.66a.666.666,0,0,1,.67.66v2.67a.683.683,0,0,1-.67.67h-2.66a.673.673,0,0,1-.48-.2.666.666,0,0,1-.19-.47Zm1.33,2v-1.33h1.34v1.33Zm7.34,0a2,2,0,0,0,2-2,2.014,2.014,0,0,0-2-2,2,2,0,0,0-2,2,1.981,1.981,0,0,0,2,2Zm0-1.33a.748.748,0,0,0,.26-.04.791.791,0,0,0,.23-.14,1.073,1.073,0,0,0,.15-.22.8.8,0,0,0,.05-.26.856.856,0,0,0-.05-.27,1.066,1.066,0,0,0-.15-.22.675.675,0,0,0-.23-.14.569.569,0,0,0-.26-.04.673.673,0,0,0-.46,1.13A.7.7,0,0,0,1185.37,1934.83Zm-4,4.12c0-1.41,2.66-2.12,4-2.12s4,.71,4,2.12v2.55h-8Zm1.37.03-.04.04v1.14h5.33v-1.14l-.03-.04a2.118,2.118,0,0,0-.65-.39,4.774,4.774,0,0,0-3.96,0A2.119,2.119,0,0,0,1182.74,1938.98Z" fill="#171717" fill-rule="evenodd"/>
        <path id="Path_496" data-name="Path 496" d="M1178.03,1920.16a2.014,2.014,0,0,1,2-2h5.34a1.983,1.983,0,0,1,1.41.59,2.008,2.008,0,0,1,.59,1.41h2.66a2,2,0,0,1,2,2v20.67a2,2,0,0,1-2,2h-14.66a2,2,0,0,1-2-2v-20.67a2,2,0,0,1,2-2Zm7.34,3.34a1.983,1.983,0,0,0,1.41-.59,2.008,2.008,0,0,0,.59-1.41h2.66a.666.666,0,0,1,.67.66v20.67a.683.683,0,0,1-.67.67h-14.66a.673.673,0,0,1-.48-.2.666.666,0,0,1-.19-.47v-20.67a.649.649,0,0,1,.67-.66h2.66a2.014,2.014,0,0,0,2,2Zm-5.34-4a.649.649,0,0,0-.66.66v1.34a.649.649,0,0,0,.66.66h5.34a.649.649,0,0,0,.66-.66v-1.34a.649.649,0,0,0-.66-.66Z" fill="#171717" fill-rule="evenodd"/>
      </g>
    </g>
  </g>
</svg>
