<svg xmlns="http://www.w3.org/2000/svg" id="last_page-24px" width="24" height="24" viewBox="0 0 24 24">
    <defs>
        <style>
            .cls-1{fill:none;opacity:.87}.cls-2{fill:rgba(255,255,255,.6)}
        </style>
    </defs>
    <path id="Path_18038" d="M0 0h24v24H0z" class="cls-1" data-name="Path 18038"/>
    <path id="Path_18039" d="M6.29 8.11L10.18 12l-3.89 3.89A1 1 0 1 0 7.7 17.3l4.59-4.59a1 1 0 0 0 0-1.41L7.7 6.7a1 1 0 0 0-1.41 0 1.014 1.014 0 0 0 0 1.41zM17 6a1 1 0 0 1 1 1v10a1 1 0 0 1-2 0V7a1 1 0 0 1 1-1z" class="cls-2" data-name="Path 18039"/>
</svg>
