<svg id="Group_21735" data-name="Group 21735" xmlns="http://www.w3.org/2000/svg" width="56" height="56" viewBox="0 0 56 56">
  <g id="Group_154" data-name="Group 154">
    <path id="Path_477" data-name="Path 477" d="M1154.7,1764a14,14,0,0,1,14-14h28a14,14,0,0,1,14,14v28a14,14,0,0,1-14,14h-28a14,14,0,0,1-14-14Z" transform="translate(-1154.7 -1750)" fill="#fe6400"/>
  </g>
  <path id="Path_478" data-name="Path 478" d="M1172.47,1767.23l12.76,3.63a4.39,4.39,0,0,1,3.02,4.08v12.26a2.338,2.338,0,0,1-.17,1.14,2.413,2.413,0,0,1-.68.93,2.382,2.382,0,0,1-2.18.46l-10.56-2.87a4.281,4.281,0,0,1-3.03-4.03v-13.36a3.211,3.211,0,0,1,3.11-3.28h16.14a3.5,3.5,0,0,1,3.5,3.5v10.44a3.874,3.874,0,0,1-.29,1.38,3.478,3.478,0,0,1-.79,1.15,3.777,3.777,0,0,1-1.17.77,3.639,3.639,0,0,1-1.38.26h-2.5" transform="translate(-1154.7 -1750)" fill="none" stroke="#fff" stroke-linecap="round" stroke-linejoin="round" stroke-width="1.5"/>
  <path id="Path_479" data-name="Path 479" d="M1183.44,1780.19a.44.44,0,0,1,0-.88m0,.88a.477.477,0,0,0,.31-.13.461.461,0,0,0,0-.62.477.477,0,0,0-.31-.13" transform="translate(-1154.7 -1750)" fill="none" stroke="#fff" stroke-width="1.5"/>
  <path id="Path_480" data-name="Path 480" d="M1194.37,1774.94h-6.12" transform="translate(-1154.7 -1750)" fill="none" stroke="#fff" stroke-linecap="round" stroke-linejoin="round" stroke-width="1.5"/>
</svg>
