<svg xmlns="http://www.w3.org/2000/svg" xmlns:xlink="http://www.w3.org/1999/xlink" width="40" height="40" viewBox="0 0 40 40">
  <defs>
    <clipPath id="clip-path">
      <rect id="Rectangle_75" data-name="Rectangle 75" width="20" height="20" transform="translate(401 781)" fill="#ffff42"/>
    </clipPath>
  </defs>
  <g id="Group_298" data-name="Group 298" transform="translate(-391 -771)">
    <g id="Group_33428" data-name="Group 33428">
      <path id="Path_992" data-name="Path 992" d="M391,781a10,10,0,0,1,10-10h20a10,10,0,0,1,10,10v20a10,10,0,0,1-10,10H401a10,10,0,0,1-10-10Z" fill="#ffff42"/>
      <g id="Group_252" data-name="Group 252" clip-path="url(#clip-path)">
        <path id="Path_993" data-name="Path 993" d="M411,799.334A8.333,8.333,0,1,0,402.668,791,8.334,8.334,0,0,0,411,799.334Z" fill="none" stroke="#000" stroke-linecap="round" stroke-linejoin="round" stroke-width="1.667"/>
        <path id="Path_994" data-name="Path 994" d="M408.574,788.5a2.5,2.5,0,0,1,4.859.834c0,1.666-2.5,2.5-2.5,2.5" fill="none" stroke="#000" stroke-linecap="round" stroke-linejoin="round" stroke-width="1.667"/>
        <path id="Path_995" data-name="Path 995" d="M411,795.167h.008" fill="none" stroke="#000" stroke-linecap="round" stroke-linejoin="round" stroke-width="1.667"/>
      </g>
    </g>
  </g>
</svg>
