<svg xmlns="http://www.w3.org/2000/svg" width="16.666" height="11.667" viewBox="0 0 16.666 11.667">
  <g id="Group_33354" data-name="Group 33354" transform="translate(-279.605 -407.167)">
    <path id="Path_278" data-name="Path 278" d="M290.437,411.333l3.795-1.9a.82.82,0,0,1,.41-.087.831.831,0,0,1,.8.832v5.636a.832.832,0,0,1-.8.832.82.82,0,0,1-.41-.087l-3.795-1.9M282.1,418h6.667a1.666,1.666,0,0,0,1.666-1.667v-6.666A1.666,1.666,0,0,0,288.771,408H282.1a1.666,1.666,0,0,0-1.666,1.667v6.666A1.666,1.666,0,0,0,282.1,418Z" fill="none" stroke="#4a5565" stroke-linecap="round" stroke-linejoin="round" stroke-width="1.667"/>
  </g>
</svg>
