<svg xmlns="http://www.w3.org/2000/svg" width="32" height="32" viewBox="0 0 32 32">
  <g id="Group_251" data-name="Group 251" transform="translate(-72 -264)">
    <g id="Group_249" data-name="Group 249">
      <path id="Path_410" data-name="Path 410" d="M76,253a10,10,0,0,1,10-10H98a10,10,0,0,1,10,10v12a10,10,0,0,1-10,10H86a10,10,0,0,1-10-10Z" transform="translate(-4 21)" fill="rgba(255,255,255,0.2)"/>
    </g>
    <g id="Group_250" data-name="Group 250">
      <path id="Path_411" data-name="Path 411" d="M90.846,265a1.333,1.333,0,0,0,2.309,0" transform="translate(-4 20.999)" fill="none" stroke="#fff" stroke-linecap="round" stroke-linejoin="round" stroke-width="1.333"/>
      <path id="Path_412" data-name="Path 412" d="M86.174,261.22a.666.666,0,0,0-.118.718.665.665,0,0,0,.609.4H97.333a.667.667,0,0,0,.658-.774.664.664,0,0,0-.165-.341c-.887-.914-1.827-1.886-1.827-4.885a4,4,0,0,0-8,0C88,259.335,87.059,260.307,86.174,261.22Z" transform="translate(-4 20.999)" fill="none" stroke="#fff" stroke-linecap="round" stroke-linejoin="round" stroke-width="1.333"/>
    </g>
  </g>
</svg>
