<svg xmlns="http://www.w3.org/2000/svg" width="41.147" height="41.147" viewBox="0 0 41.147 41.147">
  <g id="Group_251" data-name="Group 251" transform="translate(-72 -264)">
    <g id="Group_249" data-name="Group 249" transform="translate(72 264)">
      <path id="Path_410" data-name="Path 410" d="M76,255.858A12.858,12.858,0,0,1,88.858,243h15.43a12.858,12.858,0,0,1,12.858,12.858v15.43a12.858,12.858,0,0,1-12.858,12.858H88.858A12.858,12.858,0,0,1,76,271.289Z" transform="translate(-76 -243)" fill="rgba(255,255,255,0.2)"/>
    </g>
    <g id="Group_250" data-name="Group 250" transform="translate(84.859 276.003)">
      <path id="Path_411" data-name="Path 411" d="M90.846,265a1.714,1.714,0,0,0,2.969,0" transform="translate(-84.615 -248.716)" fill="none" stroke="#29398d" stroke-linecap="round" stroke-linejoin="round" stroke-width="1.333"/>
      <path id="Path_412" data-name="Path 412" d="M86.224,263.759a.857.857,0,0,0-.151.923.854.854,0,0,0,.784.512h13.716a.857.857,0,0,0,.846-1,.854.854,0,0,0-.212-.438c-1.14-1.175-2.349-2.425-2.349-6.281a5.143,5.143,0,0,0-10.287,0C88.571,261.336,87.361,262.585,86.224,263.759Z" transform="translate(-86 -252.336)" fill="none" stroke="#29398d" stroke-linecap="round" stroke-linejoin="round" stroke-width="1.333"/>
    </g>
  </g>
</svg>
