<svg xmlns="http://www.w3.org/2000/svg" width="64.763" height="64.763" viewBox="0 0 64.763 64.763">
  <g id="Group_33771" data-name="Group 33771" transform="translate(-952.818 -1272.795) rotate(-13)">
    <path id="Path_686" data-name="Path 686" d="M686.337,1512.777a9.936,9.936,0,0,1-12.021,7.281l-27.4-6.721a9.939,9.939,0,0,1-7.284-12.02l6.723-27.395a9.939,9.939,0,0,1,12.021-7.286l27.4,6.721a9.943,9.943,0,0,1,7.283,12.026Z" transform="translate(0 0)" fill="#ffff42"/>
    <path id="Path_687" data-name="Path 687" d="M681.548,1502.514l1.727,1.726a8.552,8.552,0,0,1,0,12.089l-.432.432a8.561,8.561,0,0,1-12.086,0,8.643,8.643,0,0,1-1.852-2.776,8.537,8.537,0,0,1,1.852-9.313l1.728,1.726a6.109,6.109,0,0,0,4.31,10.445,6.1,6.1,0,0,0,4.322-1.807l.432-.431a6.112,6.112,0,0,0,0-8.638l-1.727-1.726Zm8.2,7.335-1.726-1.726a6.1,6.1,0,0,0-8.633-8.63l-.432.432a6.1,6.1,0,0,0,0,8.63l1.728,1.726-1.728,1.726-1.726-1.726a8.548,8.548,0,0,1-1.852-9.313,8.643,8.643,0,0,1,1.852-2.776l.432-.432a8.56,8.56,0,0,1,12.086,0,8.56,8.56,0,0,1,1.853,9.322,8.512,8.512,0,0,1-1.853,2.768" transform="translate(-13.906 -13.913)"/>
  </g>
</svg>
