<svg xmlns="http://www.w3.org/2000/svg" width="64.763" height="64.763" viewBox="0 0 64.763 64.763">
  <g id="Group_33502" data-name="Group 33502" transform="translate(-541.737 -2792.876)">
    <g id="Group_33497" data-name="Group 33497" transform="translate(-411.081 1520.081) rotate(-13)">
      <path id="Path_686" data-name="Path 686" d="M686.337,1512.777a9.936,9.936,0,0,1-12.021,7.281l-27.4-6.721a9.939,9.939,0,0,1-7.284-12.02l6.723-27.395a9.939,9.939,0,0,1,12.021-7.286l27.4,6.721a9.943,9.943,0,0,1,7.283,12.026Z" transform="translate(0 0)" fill="#2a3a8d"/>
    </g>
    <path id="Path_25774" data-name="Path 25774" d="M48.625,30a4.428,4.428,0,0,0-3.182,1.362,4.729,4.729,0,0,0-1.318,3.288,33.336,33.336,0,0,0,2.105,9.838,2.618,2.618,0,0,0,.939,1.243,2.487,2.487,0,0,0,1.458.464,2.541,2.541,0,0,0,2.4-1.7,33.067,33.067,0,0,0,2.1-9.844,4.729,4.729,0,0,0-1.318-3.288A4.428,4.428,0,0,0,48.625,30Zm-2.758,4.65a2.9,2.9,0,0,1,.808-2.015,2.7,2.7,0,0,1,3.9,0,2.9,2.9,0,0,1,.808,2.015,31.354,31.354,0,0,1-1.994,9.22.823.823,0,0,1-.3.386.83.83,0,0,1-.922,0,.824.824,0,0,1-.3-.388A31.662,31.662,0,0,1,45.867,34.65ZM48.626,48a2.858,2.858,0,0,0-2.054.879,3.072,3.072,0,0,0,0,4.244,2.839,2.839,0,0,0,4.107,0,3.072,3.072,0,0,0,0-4.244A2.858,2.858,0,0,0,48.626,48Zm-1.162,3a1.236,1.236,0,0,1,.088-.46,1.2,1.2,0,0,1,.252-.39,1.16,1.16,0,0,1,.377-.26,1.128,1.128,0,0,1,.89,0,1.16,1.16,0,0,1,.377.26,1.2,1.2,0,0,1,.252.39,1.236,1.236,0,0,1,.088.46,1.222,1.222,0,0,1-.34.849,1.136,1.136,0,0,1-1.644,0A1.222,1.222,0,0,1,47.464,51Z" transform="translate(525.493 2783.258)" fill="#fff"/>
  </g>
</svg>
