<svg id="Group_21750" data-name="Group 21750" xmlns="http://www.w3.org/2000/svg" width="56" height="56" viewBox="0 0 56 56">
  <g id="Group_163" data-name="Group 163">
    <path id="Path_511" data-name="Path 511" d="M156.3,2242a14,14,0,0,1,14-14h28a14,14,0,0,1,14,14v28a14,14,0,0,1-14,14h-28a14,14,0,0,1-14-14Z" transform="translate(-156.297 -2228)" fill="#1a63fc"/>
  </g>
  <g id="Group_21749" data-name="Group 21749" transform="translate(19.703 18)">
    <path id="Path_512" data-name="Path 512" d="M190,2246H178a2,2,0,0,0-2,2v16a2,2,0,0,0,2,2h12a2,2,0,0,0,2-2v-16A2,2,0,0,0,190,2246Z" transform="translate(-176 -2246)" fill="none" stroke="#fff" stroke-linecap="round" stroke-linejoin="round" stroke-width="2"/>
    <path id="Path_513" data-name="Path 513" d="M180,2250h8" transform="translate(-176 -2246)" fill="none" stroke="#fff" stroke-linecap="round" stroke-linejoin="round" stroke-width="2"/>
    <path id="Path_514" data-name="Path 514" d="M188,2258v4" transform="translate(-176 -2246)" fill="none" stroke="#fff" stroke-linecap="round" stroke-linejoin="round" stroke-width="2"/>
    <path id="Path_515" data-name="Path 515" d="M188,2254h.01" transform="translate(-176 -2246)" fill="none" stroke="#fff" stroke-linecap="round" stroke-linejoin="round" stroke-width="2"/>
    <path id="Path_516" data-name="Path 516" d="M184,2254h.01" transform="translate(-176 -2246)" fill="none" stroke="#fff" stroke-linecap="round" stroke-linejoin="round" stroke-width="2"/>
    <path id="Path_517" data-name="Path 517" d="M180,2254h.01" transform="translate(-176 -2246)" fill="none" stroke="#fff" stroke-linecap="round" stroke-linejoin="round" stroke-width="2"/>
    <path id="Path_518" data-name="Path 518" d="M184,2258h.01" transform="translate(-176 -2246)" fill="none" stroke="#fff" stroke-linecap="round" stroke-linejoin="round" stroke-width="2"/>
    <path id="Path_519" data-name="Path 519" d="M180,2258h.01" transform="translate(-176 -2246)" fill="none" stroke="#fff" stroke-linecap="round" stroke-linejoin="round" stroke-width="2"/>
    <path id="Path_520" data-name="Path 520" d="M184,2262h.01" transform="translate(-176 -2246)" fill="none" stroke="#fff" stroke-linecap="round" stroke-linejoin="round" stroke-width="2"/>
    <path id="Path_521" data-name="Path 521" d="M180,2262h.01" transform="translate(-176 -2246)" fill="none" stroke="#fff" stroke-linecap="round" stroke-linejoin="round" stroke-width="2"/>
  </g>
</svg>
