<svg id="Group_160" data-name="Group 160" xmlns="http://www.w3.org/2000/svg" width="56" height="56" viewBox="0 0 56 56">
  <g id="Group_21748" data-name="Group 21748">
    <path id="Path_498" data-name="Path 498" d="M1154.8,2088a14,14,0,0,1,14-14h28a14,14,0,0,1,14,14v28a14,14,0,0,1-14,14h-28a14,14,0,0,1-14-14Z" transform="translate(-1154.8 -2074)" fill="#ffff42"/>
    <path id="Path_499" data-name="Path 499" d="M1186.3,2090.34h-10.5a2.305,2.305,0,0,0-1.65.68,2.332,2.332,0,0,0-.69,1.65v18.67a2.339,2.339,0,0,0,2.34,2.33h14a2.322,2.322,0,0,0,2.33-2.33v-15.17Z" transform="translate(-1154.8 -2074)" fill="none" stroke="#171717" stroke-linecap="round" stroke-linejoin="round" stroke-width="2.333"/>
    <path id="Path_500" data-name="Path 500" d="M1185.13,2090.34V2095a2.339,2.339,0,0,0,2.33,2.34h4.67" transform="translate(-1154.8 -2074)" fill="none" stroke="#171717" stroke-linecap="round" stroke-linejoin="round" stroke-width="2.333"/>
    <path id="Path_501" data-name="Path 501" d="M1179.3,2105.5l2.33,2.33,4.67-4.67" transform="translate(-1154.8 -2074)" fill="none" stroke="#171717" stroke-linecap="round" stroke-linejoin="round" stroke-width="2.333"/>
  </g>
</svg>
