<svg xmlns="http://www.w3.org/2000/svg" width="64.763" height="64.764" viewBox="0 0 64.763 64.764">
  <g id="Group_33777" data-name="Group 33777" transform="translate(-489.134 -2019.476)">
    <g id="Group_33772" data-name="Group 33772" transform="translate(-49 22.834)">
      <g id="Group_33500" data-name="Group 33500">
        <g id="Group_33496" data-name="Group 33496" transform="translate(-414.684 723.847) rotate(-13)">
          <path id="Path_686" data-name="Path 686" d="M686.337,1512.777a9.936,9.936,0,0,1-12.021,7.281l-27.4-6.721a9.939,9.939,0,0,1-7.284-12.02l6.723-27.395a9.939,9.939,0,0,1,12.021-7.286l27.4,6.721a9.943,9.943,0,0,1,7.283,12.026Z" transform="translate(0 0)" fill="#ffff42"/>
        </g>
      </g>
    </g>
    <path id="Path_25776" data-name="Path 25776" d="M108,67V61.8a7.719,7.719,0,0,1-1.5.2H106v6H96V61a4.951,4.951,0,0,1,5-5,5.605,5.605,0,0,1,1.5-3.3A1.955,1.955,0,0,0,101,52a2.006,2.006,0,0,0-2,2v.3A6.96,6.96,0,0,0,94,61v6l-2,2v1h18V69Zm-9,4a2,2,0,0,0,4,0Zm11-14.5a3.5,3.5,0,1,1-3.5-3.5A3.543,3.543,0,0,1,110,56.5Z" transform="translate(421 1989)"/>
  </g>
</svg>
