<svg xmlns="http://www.w3.org/2000/svg" width="58.933" height="58.93" viewBox="0 0 58.933 58.93">
  <g id="Group_21730" data-name="Group 21730" transform="translate(0)">
    <g id="Group_21935" data-name="Group 21935">
      <path id="Path_460" data-name="Path 460" d="M154.83,1762.53a14,14,0,0,1,14-14h30.933a14,14,0,0,1,14,14v30.93a14,14,0,0,1-14,14H168.83a14,14,0,0,1-14-14Z" transform="translate(-154.83 -1748.53)" fill="#ffff42"/>
      <g id="Group_21934" data-name="Group 21934">
        <path id="Path_461" data-name="Path 461" d="M195.089,1775.08h-1.75m-18.083,0h1.75m8.167-9.92v1.75m-7.013,1.16,1.237,1.24m12.787-1.24-1.238,1.24m-5.009,1.94c-5.144,4.49-10.683,10.13-12.65,12.17a1.623,1.623,0,0,0-.343,1.78,9.9,9.9,0,0,0,.492.99,10.12,10.12,0,0,0,.617.93,1.624,1.624,0,0,0,1.71.59c2.747-.69,10.408-2.66,16.869-4.87" transform="translate(-154.83 -1748.53)" fill="none" stroke="#171717" stroke-linecap="round" stroke-linejoin="round" stroke-width="1.5"/>
        <path id="Path_462" data-name="Path 462" d="M182.9,1774.02a37.865,37.865,0,0,1,5.8,10.05m-5.17,1.72.346,1.29a2.662,2.662,0,0,1,.068,1.04,2.626,2.626,0,0,1-.336.99,2.688,2.688,0,0,1-.689.79,2.724,2.724,0,0,1-.937.46,2.822,2.822,0,0,1-1.043.07,2.682,2.682,0,0,1-.989-.34,2.58,2.58,0,0,1-.786-.69,2.739,2.739,0,0,1-.462-.93l-.288-1.08m7.07-16.92a64.93,64.93,0,0,1,7.587,13.14" transform="translate(-154.83 -1748.53)" fill="none" stroke="#171717" stroke-linecap="round" stroke-linejoin="round" stroke-width="1.5"/>
      </g>
    </g>
  </g>
</svg>
