<svg xmlns="http://www.w3.org/2000/svg" viewBox="0 0 24 24" width="24" height="24">
	<style>
		tspan { white-space:pre }
		.shp0 { fill: none } 
		.shp1 { fill: #ffff42 } 
	</style>
	<path id="Path_18049" class="shp0" d="M0 0L24 0L24 24L0 24L0 0Z" />
	<path id="Path_18050" fill-rule="evenodd" class="shp1" d="M19.74 18.26C19.93 18.46 20.03 18.72 20.03 19C20.02 19.27 19.91 19.54 19.72 19.73C19.53 19.92 19.26 20.03 18.99 20.04C18.71 20.04 18.45 19.94 18.25 19.75L14 15.5L14 14.71L13.73 14.43C11.07 16.71 7.09 16.48 4.7 13.91C2.32 11.35 2.4 7.35 4.88 4.88C7.35 2.4 11.35 2.32 13.91 4.7C16.48 7.09 16.71 11.07 14.43 13.73L14.71 14L15.5 14L19.74 18.26ZM9.5 14C10.09 14 10.68 13.88 11.22 13.66C11.77 13.43 12.27 13.1 12.68 12.68C13.1 12.27 13.43 11.77 13.66 11.22C13.88 10.68 14 10.09 14 9.5C14 7.68 12.9 6.04 11.22 5.34C9.54 4.65 7.61 5.03 6.32 6.32C5.03 7.61 4.65 9.54 5.34 11.22C6.04 12.9 7.68 14 9.5 14Z" />
</svg>