<svg xmlns="http://www.w3.org/2000/svg" width="21.446" height="14.033" viewBox="0 0 21.446 14.033">
  <g id="Group_22385" data-name="Group 22385" transform="translate(1.333 1.333)">
    <path id="Path_567" data-name="Path 567" d="M399.166,4540.252l4.947,3.3a.48.48,0,0,0,.24.071.485.485,0,0,0,.246-.043.534.534,0,0,0,.183-.185.457.457,0,0,0,.067-.241v-7.757a.466.466,0,0,0-.237-.412.478.478,0,0,0-.237-.071.47.47,0,0,0-.237.071l-4.971,2.9" transform="translate(-385.404 -4533.617)" fill="none" stroke="#fff" stroke-linecap="round" stroke-width="1.333"/>
    <g id="Path_568" data-name="Path 568" transform="translate(-389.834 -4534)" fill="none" stroke-linecap="round">
      <path d="M401.2,4534h-9.472a1.9,1.9,0,0,0-1.894,1.89v7.587a1.9,1.9,0,0,0,1.894,1.89H401.2a1.9,1.9,0,0,0,1.894-1.89v-7.587A1.9,1.9,0,0,0,401.2,4534Z" stroke="none"/>
      <path d="M 391.7278747558594 4534 C 390.6822509765625 4534 389.8340454101562 4534.8525390625 389.8340454101562 4535.8896484375 L 389.8340454101562 4543.4765625 C 389.8340454101562 4544.513671875 390.6822509765625 4545.3662109375 391.7278747558594 4545.3662109375 L 401.2003173828125 4545.3662109375 C 402.2460021972656 4545.3662109375 403.0941467285156 4544.513671875 403.0941467285156 4543.4765625 L 403.0941467285156 4535.8896484375 C 403.0941467285156 4534.8525390625 402.2460021972656 4534 401.2003173828125 4534 L 391.7278747558594 4534 M 391.7278747558594 4532.66650390625 L 401.2003173828125 4532.66650390625 C 402.9797668457031 4532.66650390625 404.427490234375 4534.1123046875 404.427490234375 4535.8896484375 L 404.427490234375 4543.4765625 C 404.427490234375 4545.25390625 402.9797668457031 4546.69970703125 401.2003173828125 4546.69970703125 L 391.7278747558594 4546.69970703125 C 389.9484252929688 4546.69970703125 388.5007019042969 4545.25390625 388.5007019042969 4543.4765625 L 388.5007019042969 4535.8896484375 C 388.5007019042969 4534.1123046875 389.9484252929688 4532.66650390625 391.7278747558594 4532.66650390625 Z" stroke="none" fill="#fff"/>
    </g>
  </g>
</svg>
