<svg xmlns="http://www.w3.org/2000/svg" width="40" height="40" viewBox="0 0 40 40">
  <g id="Group_189" data-name="Group 189" transform="translate(-950.246 -352.5)">
    <g id="Group_33431" data-name="Group 33431">
      <path id="Path_514" data-name="Path 514" d="M950.246,362.5a10,10,0,0,1,10-10h20a10,10,0,0,1,10,10v20a10,10,0,0,1-10,10h-20a10,10,0,0,1-10-10Z" fill="#ffff42"/>
      <path id="Path_515" data-name="Path 515" d="M970.246,368.333V380" fill="none" stroke="#000" stroke-linecap="round" stroke-linejoin="round" stroke-width="1.667"/>
      <path id="Path_516" data-name="Path 516" d="M962.747,377.5a.833.833,0,0,1-.833-.833V365.833a.833.833,0,0,1,.833-.833h4.167a2.391,2.391,0,1,0,4.31.976,3.333,3.333,0,0,1,2.357-.976h4.166a.833.833,0,0,1,.834.833v10.834a.833.833,0,0,1-.834.833h-5a1.794,1.794,0,1,1-3.232.732,2.5,2.5,0,0,0-1.768-.732Z" fill="none" stroke="#000" stroke-linecap="round" stroke-linejoin="round" stroke-width="1.667"/>
    </g>
  </g>
</svg>
