<svg xmlns="http://www.w3.org/2000/svg" width="58.06" height="58.06" viewBox="0 0 58.06 58.06">
  <g id="Group_155" data-name="Group 155" transform="translate(-154.771 -1902.97)">
    <g id="Group_21737" data-name="Group 21737">
      <path id="Path_482" data-name="Path 482" d="M154.771,1916.97a14,14,0,0,1,14-14h30.06a14,14,0,0,1,14,14v30.06a14,14,0,0,1-14,14h-30.06a14,14,0,0,1-14-14Z" fill="#ffff42"/>
      <g id="Group_21736" data-name="Group 21736">
        <path id="Path_483" data-name="Path 483" d="M191.988,1928.75H175.363a3.061,3.061,0,0,0-3.062,3.06v11.38a3.061,3.061,0,0,0,3.062,3.06h16.625a3.061,3.061,0,0,0,3.063-3.06v-11.38A3.061,3.061,0,0,0,191.988,1928.75Z" fill="none" stroke="#171717" stroke-linecap="round" stroke-linejoin="round" stroke-width="2"/>
        <path id="Path_484" data-name="Path 484" d="M172.3,1934h22.75m-18.375,5.91H179.3V1941h-2.625Z" fill="none" stroke="#171717" stroke-linejoin="round" stroke-width="1.875"/>
        <path id="Path_485" data-name="Path 485" d="M188.8,1917.75a6.5,6.5,0,1,0,6.5,6.5A6.516,6.516,0,0,0,188.8,1917.75Zm-1.3,9.75-3.25-3.25.916-.92,2.334,2.33,4.933-4.93.917.92Z" fill="#171717"/>
      </g>
    </g>
  </g>
</svg>
