<svg id="Group_162" data-name="Group 162" xmlns="http://www.w3.org/2000/svg" width="56" height="56" viewBox="0 0 56 56">
  <g id="Group_21747" data-name="Group 21747">
    <path id="Path_508" data-name="Path 508" d="M905.1,2088.5a14,14,0,0,1,14-14h28a14,14,0,0,1,14,14v28a14,14,0,0,1-14,14h-28a14,14,0,0,1-14-14Z" transform="translate(-905.098 -2074.5)" fill="#ffff42"/>
    <path id="Path_509" data-name="Path 509" d="M936.388,2099.35l-4.73,4.74-1.85-1.86a1,1,0,0,0-1.714.71.974.974,0,0,0,.077.38.907.907,0,0,0,.217.33l2.56,2.56a1.053,1.053,0,0,0,.326.22.963.963,0,0,0,.769,0,1.037,1.037,0,0,0,.325-.22l5.44-5.44a.9.9,0,0,0,.218-.33.976.976,0,0,0,0-.76.9.9,0,0,0-.218-.33,1.048,1.048,0,0,0-.325-.22,1.094,1.094,0,0,0-.769,0A1.065,1.065,0,0,0,936.388,2099.35Zm-3.29-6.85a10,10,0,0,0-10,10,9.9,9.9,0,0,0,2.26,6.33l-2,2a1,1,0,0,0-.21,1.09.978.978,0,0,0,.387.43.941.941,0,0,0,.563.15h9a10,10,0,0,0,0-20Zm0,18h-6.59l.93-.93a1,1,0,0,0,0-1.41,8,8,0,1,1,5.66,2.34Z" transform="translate(-905.098 -2074.5)" fill="#171717"/>
  </g>
</svg>
