<svg xmlns="http://www.w3.org/2000/svg" width="75" height="75" viewBox="0 0 75 75">
  <g id="Component_372_1" data-name="Component 372 – 1" transform="translate(-4 -4)">
    <g id="Group_21849" transform="translate(-829 -578)">
      <g id="Group_21842" transform="translate(556 -266)">
        <g id="Group_20357" transform="translate(-6 -1)">
          <g id="Group_20337" transform="translate(283 849)">
            <path id="Rectangle_4638" d="M0,0H75V75H0Z" fill="none"/>
            <g id="Group_20319" transform="translate(13.542 11.458)">
              <g id="Path_20052">
                <path id="Path_7" data-name="Path 7" d="M39.583,55.5H4.167A3.421,3.421,0,0,1,.75,52.083V10.727L10.727.75H39.583A3.421,3.421,0,0,1,43,4.167V52.083A3.421,3.421,0,0,1,39.583,55.5Z" fill="#f6f7fb"/>
                <path id="Path_8" data-name="Path 8" d="M11.038,1.5,1.5,11.038V52.083A2.67,2.67,0,0,0,4.167,54.75H39.583a2.67,2.67,0,0,0,2.667-2.667V4.167A2.67,2.67,0,0,0,39.583,1.5H11.038M10.417,0H39.583A4.166,4.166,0,0,1,43.75,4.167V52.083a4.166,4.166,0,0,1-4.167,4.167H4.167A4.166,4.166,0,0,1,0,52.083V10.417Z" fill="#2a3a8d"/>
              </g>
              <path id="Path_20053" d="M.382,0V10.212H-9.165" transform="translate(10.556 0.521)" fill="none" stroke="#2a3a8d" stroke-linejoin="round" stroke-width="1.5"/>
              <g id="Group_21843" transform="translate(0.215 -7)">
                <g id="Path_18118">
                  <path id="Path_9" data-name="Path 9" d="M21,.95H.678A.207.207,0,0,1,.5.725.208.208,0,0,1,.677.5H21a.209.209,0,0,1,.178.225A.209.209,0,0,1,21,.95Z" transform="translate(11.244 33.067)" fill="#0875e2"/>
                  <path id="Path_10" data-name="Path 10" d="M.677,0H21a.7.7,0,0,1,.678.725A.7.7,0,0,1,21,1.45H.678A.7.7,0,0,1,0,.725.7.7,0,0,1,.677,0Z" transform="translate(11.244 33.067)" fill="#2183e5"/>
                </g>
                <g id="Path_18293">
                  <path id="Path_11" data-name="Path 11" d="M21,.95H.678A.207.207,0,0,1,.5.725.208.208,0,0,1,.677.5H21a.209.209,0,0,1,.178.225A.209.209,0,0,1,21,.95Z" transform="translate(11.244 36.419)" fill="#0875e2"/>
                  <path id="Path_12" data-name="Path 12" d="M.677,0H21a.7.7,0,0,1,.678.725A.7.7,0,0,1,21,1.45H.678A.7.7,0,0,1,0,.725.7.7,0,0,1,.677,0Z" transform="translate(11.244 36.419)" fill="#2183e5"/>
                </g>
                <g id="Path_18294">
                  <path id="Path_13" data-name="Path 13" d="M8.161.95H.52A1.249,1.249,0,0,1,.5.725,1.243,1.243,0,0,1,.519.5H8.16a1.351,1.351,0,0,1,.019.225A1.262,1.262,0,0,1,8.161.95Z" transform="translate(11.244 39.771)" fill="#0875e2"/>
                  <path id="Path_14" data-name="Path 14" d="M.271,0H8.41c.15,0,.271.325.271.725s-.121.725-.271.725H.27C.121,1.45,0,1.125,0,.725S.121,0,.271,0Z" transform="translate(11.244 39.771)" fill="#2183e5"/>
                </g>
                <g id="Path_22116">
                  <path id="Path_15" data-name="Path 15" d="M21,.95H.678A.207.207,0,0,1,.5.725.208.208,0,0,1,.677.5H21a.209.209,0,0,1,.178.225A.209.209,0,0,1,21,.95Z" transform="translate(11.243 29.771)" fill="#0875e2"/>
                  <path id="Path_16" data-name="Path 16" d="M.677,0H21a.7.7,0,0,1,.678.725A.7.7,0,0,1,21,1.45H.678A.7.7,0,0,1,0,.725.7.7,0,0,1,.677,0Z" transform="translate(11.243 29.771)" fill="#2183e5"/>
                </g>
              </g>
            </g>
            <g id="hourglass_empty-24px_1_" transform="translate(47.917 9.691)">
              <path id="Path_20070" d="M0,0H12.184V12.184H0Z" fill="none"/>
            </g>
          </g>
        </g>
      </g>
    </g>
    <g id="Group_21848" transform="matrix(0.994, 0.105, -0.105, 0.994, 43.68, 53.451)">
      <g id="Group_19078" transform="translate(8.881)">
        <path id="Path_16374" d="M3.832,2.2c-.068.08-.131.165-.2.239-.473.477-.949.953-1.414,1.419L0,1.64c.015-.016.041-.046.07-.074L1.479.157a1.669,1.669,0,0,1,1.844.3A2.09,2.09,0,0,1,3.832,2.2Z" fill="#2a3a8d"/>
      </g>
      <g id="Group_19079" transform="translate(1.923 2.721)">
        <path id="Path_16375" d="M8.124,2.083a1.662,1.662,0,0,1-.169.259c-.385.393-.776.78-1.165,1.168C5.272,5.028,2.01,8.228,2.01,8.228a8.089,8.089,0,0,0-.9-1.239A7.239,7.239,0,0,0,0,6.019S3.824,2.047,5.731.141a.327.327,0,0,1,.539,0C6.828.7,7.386,1.255,7.94,1.816A1.874,1.874,0,0,1,8.124,2.083Z" fill="#2a3a8d"/>
      </g>
      <path id="Path_16376" d="M3.426,1.962S.559,3.276.16,3.449A.543.543,0,0,1,0,3.466a.488.488,0,0,1,.012-.159C.44,2.34,1.6,0,1.6,0A5.6,5.6,0,0,1,2.629.841a6.282,6.282,0,0,1,.8,1.121Z" transform="translate(0.13 9.124)" fill="#2a3a8d"/>
      <g id="Group_19081" transform="translate(0 11.539)">
        <path id="Path_16377" d="M1.232.571c0,.048-.032.063-.063.076-.223.091-.948.447-1.106.51A.266.266,0,0,1,0,1.164a.153.153,0,0,1,0-.058L.514.056C.546-.011.591-.017.648.034.843.213,1,.345,1.2.525A.309.309,0,0,1,1.232.571Z" fill="#2a3a8d"/>
      </g>
      <g id="Group_19082" transform="translate(8.236 1.967)">
        <path id="Path_16378" d="M2.527,2.187l-.334.347L0,.34.345,0Z" fill="#2a3a8d"/>
      </g>
    </g>
    <ellipse id="Ellipse_920" cx="9.142" cy="8.87" rx="9.142" ry="8.87" transform="translate(49.348 7.816)" fill="#eaecf4" stroke="#29398d" stroke-width="1.5"/>
    <path id="Path_18102" d="M-8021-1472.65v6.03l3.759,2.511" transform="translate(8078.682 1484.534)" fill="none" stroke="#2a3a8d" stroke-linecap="round" stroke-linejoin="round" stroke-width="1.5"/>
  </g>
</svg>
