<?xml version="1.0" encoding="UTF-8"?>
<svg id="Layer_2" data-name="Layer 2" xmlns="http://www.w3.org/2000/svg" viewBox="0 0 35.51 23.16">
  <defs>
    <style>
      .cls-1 {
        fill: none;
        stroke: #002e76;
        stroke-linecap: round;
        stroke-linejoin: round;
      }

      .cls-2 {
        fill: #002e76;
      }

      .cls-3 {
        fill: #6772ac;
      }

      .cls-4 {
        fill: #aab0d1;
      }

      .cls-5 {
        isolation: isolate;
      }
    </style>
  </defs>
  <g id="Component_276_2" data-name="Component 276 2">
    <g>
      <path id="Path_11478" data-name="Path 11478" class="cls-4" d="M8.08,3.05v-.09c-.09-.09-.17-.09-.17-.09v-.09s-.09-.09-.17-.09-.17,.09-.17,.09h-.09s0-.09-.09-.09v-.17c-.09-.17-.6-.09-.68-.09s-.09,.09-.09,.17h0l-.09,.09h-.17q-.09-.09-.17-.09t-.17,.09v.09s-.17,0-.17,.09v.09s0,.09-.09,.09v.17l.09,.09s.09,0,.09,.09c0,0,0,.09,.09,.09h.09s0-.09,.09-.09c-.17,.34-.09,.68,.17,.94v.68h-.17c-.09,0-.09,.09-.09,.09l-.09,.09v.09s-.09,0-.09,.09c-.09,.09-.09,.17-.09,.26h0v.17h0c0,.17,.09,.34,.26,.34v.09l.09,.09h1.36q.09,0,.09-.09v-.09c.17-.09,.26-.17,.26-.34h0v-.17h0c0-.09,0-.17-.09-.26,0,0,0-.09-.09-.09v-.09s0-.09-.09-.09c0,0,0-.09-.09-.09h-.17v-.34c0-.09,.09-.26,0-.34,.17-.17,.26-.43,.26-.68,0-.09,0-.17-.09-.26,.09,0,.09,.09,.09,.09h.09l.09-.09,.09-.09,.09-.09c.26,0,.17-.09,.09-.17h0Z"/>
      <path id="Rectangle_3629" data-name="Rectangle 3629" class="cls-4" d="M2.98,18.89h29.2v.34H2.98v-.34Z"/>
      <path id="Rectangle_3632" data-name="Rectangle 3632" class="cls-4" d="M9.87,5.1h12.77c.34,0,.6,.26,.6,.6h0c0,.34-.26,.6-.6,.6H9.87c-.34,0-.6-.26-.6-.6h0c0-.34,.26-.6,.6-.6Z"/>
      <path id="Rectangle_4866" data-name="Rectangle 4866" class="cls-3" d="M9.96,3.22h10.64c.34,0,.6,.26,.6,.6h0c0,.34-.26,.6-.6,.6H9.96c-.34,0-.6-.26-.6-.6h0c0-.34,.26-.6,.6-.6Z"/>
      <path id="Path_22125" data-name="Path 22125" class="cls-1" d="M19.15,.59H2.29c-.51-.09-1.02,.09-1.36,.43-.26,.34-.34,.68-.43,1.11V20.08s-.09,1.53,.34,2.04c.51,.51,1.79,.51,1.79,.51h29.97c.68,.09,1.36-.09,1.96-.51,.34-.6,.51-1.36,.43-2.04V2.46s0-1.96-2.47-1.96c-2.72,.09-13.37,.09-13.37,.09Z"/>
      <path class="cls-2" d="M30.9,12.16v1.96c0,.26-.17,.43-.43,.43h-4.6c-.26,0-.43-.17-.43-.43v-1.96c0-.26-.17-.43-.43-.43s-.43,.17-.43,.43v2.3c0,.43,.34,.77,.77,.77h5.45c.43,0,.77-.34,.77-.77v-2.3c0-.26-.17-.43-.43-.43-.09,.09-.26,.26-.26,.43Zm-2.3-.09l.77-.77c.17-.17,.34-.17,.51,0,.17,.17,.17,.34,0,.51h0l-1.36,1.36c-.17,.17-.43,.17-.51,0l-1.36-1.36c-.17-.17-.09-.43,0-.51,.17-.09,.34-.09,.51,0l.77,.77v-3.32c0-.26,.17-.43,.43-.43s.43,.17,.43,.43v3.32h-.17Z"/>
      <g class="cls-5">
        <path class="cls-2" d="M6.32,12.76c-.03,.42-.18,.74-.46,.98-.28,.24-.64,.36-1.1,.36-.5,0-.89-.17-1.17-.5-.28-.33-.43-.79-.43-1.38v-.24c0-.37,.07-.7,.2-.98,.13-.28,.32-.5,.56-.65s.53-.23,.85-.23c.45,0,.81,.12,1.08,.36,.27,.24,.43,.58,.47,1.01h-.8c-.02-.25-.09-.43-.21-.54-.12-.11-.3-.17-.55-.17-.27,0-.46,.1-.6,.29-.13,.19-.2,.49-.2,.89v.29c0,.42,.06,.72,.19,.92,.13,.19,.33,.29,.6,.29,.25,0,.43-.06,.55-.17,.12-.11,.19-.29,.21-.52h.8Z"/>
        <path class="cls-2" d="M8.85,13.04c0-.15-.05-.27-.16-.35-.11-.08-.3-.17-.57-.26-.28-.09-.5-.18-.66-.26-.44-.24-.66-.56-.66-.96,0-.21,.06-.4,.18-.56,.12-.16,.29-.29,.51-.38s.47-.14,.74-.14,.52,.05,.74,.15c.22,.1,.38,.24,.5,.42,.12,.18,.18,.39,.18,.62h-.8c0-.18-.06-.32-.17-.41-.11-.1-.27-.15-.47-.15s-.35,.04-.45,.12-.16,.19-.16,.33c0,.13,.06,.23,.19,.32,.13,.09,.31,.17,.56,.24,.45,.14,.78,.31,.99,.51,.21,.2,.31,.45,.31,.75,0,.34-.13,.6-.38,.79-.25,.19-.59,.29-1.02,.29-.3,0-.57-.05-.81-.16-.24-.11-.43-.26-.56-.45s-.19-.41-.19-.66h.8c0,.43,.25,.64,.77,.64,.19,0,.34-.04,.44-.12,.11-.08,.16-.18,.16-.32Z"/>
        <path class="cls-2" d="M11.04,14.05h-.8v-3.87h.8v3.87Z"/>
        <path class="cls-2" d="M15.46,12.47h-1.53v1.58h-.8v-3.87h2.52v.65h-1.72v1h1.53v.64Z"/>
        <path class="cls-2" d="M16.06,10.43c0-.11,.04-.21,.12-.28,.08-.07,.18-.11,.32-.11s.24,.04,.31,.11c.08,.07,.12,.17,.12,.28s-.04,.21-.12,.29c-.08,.07-.18,.11-.31,.11s-.23-.04-.31-.11c-.08-.07-.12-.17-.12-.29Zm.82,3.62h-.77v-2.88h.77v2.88Z"/>
        <path class="cls-2" d="M18.32,14.05h-.77v-4.08h.77v4.08Z"/>
        <path class="cls-2" d="M20.28,14.11c-.42,0-.77-.13-1.03-.39s-.4-.6-.4-1.03v-.07c0-.29,.06-.55,.17-.77,.11-.23,.27-.4,.47-.53,.2-.12,.44-.18,.7-.18,.39,0,.7,.12,.93,.37,.23,.25,.34,.6,.34,1.06v.31h-1.83c.02,.19,.1,.34,.22,.45,.12,.11,.28,.17,.47,.17,.3,0,.53-.11,.69-.32l.38,.42c-.12,.16-.27,.29-.47,.38-.2,.09-.41,.14-.65,.14Zm-.09-2.36c-.15,0-.28,.05-.37,.15-.09,.1-.16,.25-.18,.44h1.07v-.06c0-.17-.05-.3-.14-.4-.09-.09-.21-.14-.38-.14Z"/>
      </g>
    </g>
  </g>
</svg>