<svg xmlns="http://www.w3.org/2000/svg" width="82" height="82" viewBox="0 0 82 82">
  <defs>
    <style>
      .cls-1, .cls-5, .cls-9 {
        fill: none;
      }

      .cls-2, .cls-3 {
        fill: #fff;
      }

      .cls-2, .cls-3, .cls-4 {
        stroke: #0875e2;
      }

      .cls-2, .cls-3, .cls-4, .cls-5, .cls-6 {
        stroke-width: 1.5px;
      }

      .cls-3, .cls-6 {
        stroke-linecap: round;
      }

      .cls-3 {
        stroke-linejoin: round;
      }

      .cls-4 {
        fill: #f2f3f8;
      }

      .cls-5, .cls-6, .cls-7 {
        stroke: #2a3a8d;
      }

      .cls-6 {
        fill: #f6f7fb;
      }

      .cls-7 {
        fill: #2a3a8d;
        stroke-width: 0.5px;
        fill-rule: evenodd;
      }

      .cls-8 {
        opacity: 0;
      }

      .cls-9 {
        stroke: #e2e2e2;
      }

      .cls-10 {
        stroke: none;
      }
    </style>
  </defs>
  <g id="Group_20361" data-name="Group 20361" transform="translate(-861 -237)">
    <g id="Group_20331" data-name="Group 20331" transform="translate(-5 -2)">
      <rect id="Rectangle_4636" data-name="Rectangle 4636" class="cls-1" width="72" height="72" transform="translate(871 244)"/>
      <path id="Path_18030" data-name="Path 18030" class="cls-2" d="M143,163.424q0-11.433,0-22.869c0-2.011,1.439-3.329,3.636-3.329,12.245,0,24.492.016,36.736-.016a3.453,3.453,0,0,1,3.653,3.345q-.037,22.887-.015,45.774c0,1.986-1.447,3.311-3.617,3.311-12.244,0-24.489-.018-36.734.018a3.467,3.467,0,0,1-3.678-3.4C143.023,178.643,143,171.035,143,163.424Zm32.342,14.5c0,1.477,0,2.954,0,4.429,0,.733.416,1.12,1.2,1.122q2.218.01,4.436,0a1.071,1.071,0,0,0,1.223-1.12q0-4.427,0-8.857c0-.742-.431-1.14-1.24-1.144q-2.2-.014-4.392,0c-.814,0-1.228.391-1.228,1.142C175.338,174.972,175.34,176.447,175.34,177.924Zm-5.649-5.575c-.866,0-1.734,0-2.6,0-.6,0-.832.213-.834.758q-.011,1.374,0,2.746c0,.574.224.778.854.78q2.6,0,5.2,0c.568,0,.809-.222.812-.737.007-.927,0-1.857,0-2.784,0-.545-.231-.755-.832-.76C171.426,172.346,170.56,172.351,169.692,172.349Zm.017,11.128c.851,0,1.7,0,2.556,0,.632,0,.856-.2.859-.776q.007-1.371,0-2.744c0-.527-.229-.758-.787-.762q-2.646-.014-5.287,0c-.576,0-.792.222-.795.753,0,.914,0,1.828,0,2.744,0,.568.234.78.851.783C167.974,183.481,168.84,183.477,169.709,183.477Zm-18.147-11.126c-.883,0-1.764-.007-2.645,0-.566,0-.795.219-.8.744q-.007,1.391,0,2.784c0,.545.219.749.829.751q2.6.01,5.2,0c.593,0,.829-.224.832-.764,0-.9,0-1.8,0-2.7,0-.608-.231-.812-.905-.814C153.238,172.349,152.4,172.351,151.562,172.351Zm9.088,0c-.9,0-1.791-.007-2.684,0-.539,0-.78.235-.782.728,0,.941-.007,1.882,0,2.823,0,.491.244.726.78.728q2.642.01,5.285,0c.581,0,.795-.213.795-.746q.007-1.371,0-2.744c0-.595-.219-.789-.878-.792C162.328,172.349,161.489,172.351,160.65,172.351Zm-9.091,11.126c.881,0,1.762.007,2.642,0,.514,0,.773-.233.777-.694q.015-1.452,0-2.9c0-.443-.258-.679-.743-.681q-2.687-.014-5.373,0c-.522,0-.741.228-.743.712q-.007,1.391,0,2.782c0,.579.216.78.841.785C149.825,183.481,150.694,183.477,151.56,183.477Zm9.061,0c.881,0,1.762.007,2.642,0,.546,0,.777-.224.78-.724q.007-1.411,0-2.82c0-.5-.217-.728-.768-.733q-2.665-.017-5.329,0c-.541,0-.763.24-.765.744q0,1.371,0,2.741c0,.593.224.792.881.794C158.916,183.479,159.767,183.477,160.621,183.477Zm9.066-25.676c-.893,0-1.789,0-2.684,0-.458,0-.733.2-.741.593q-.026,1.547,0,3.1a.612.612,0,0,0,.677.575q2.727.01,5.454,0c.463,0,.718-.231.723-.656q.022-1.449,0-2.9c-.007-.525-.241-.71-.832-.712C171.421,157.8,170.555,157.8,169.687,157.8Zm.022,7.29c-.866,0-1.732,0-2.6,0-.654,0-.859.194-.859.8,0,.889,0,1.776,0,2.664,0,.584.234.8.878.8q2.58,0,5.157,0c.581,0,.817-.195.827-.719.017-.952.017-1.907.007-2.859,0-.477-.248-.685-.77-.688C171.47,165.086,170.59,165.091,169.709,165.091Zm-9.122-3.019c.881,0,1.762,0,2.642,0,.576,0,.812-.21.814-.728q.007-1.411,0-2.82c0-.5-.234-.719-.775-.722q-2.642,0-5.287,0c-.563,0-.8.217-.8.742q0,1.391,0,2.782c0,.516.246.742.8.744C158.852,162.074,159.72,162.071,160.586,162.071Zm-9.061,0c.9,0,1.789,0,2.684,0,.507,0,.765-.231.77-.7q.015-1.432,0-2.861c0-.5-.251-.71-.792-.71q-2.642-.007-5.285,0c-.544,0-.78.215-.782.712q-.007,1.411,0,2.82c0,.518.241.733.8.735C149.793,162.074,150.659,162.071,151.525,162.071Zm9.105,3.019c-.9,0-1.789,0-2.684,0-.522,0-.76.215-.763.69q-.011,1.432,0,2.861c0,.486.256.712.8.715q2.642.01,5.285,0c.534,0,.775-.233.778-.726,0-.941.007-1.88,0-2.82,0-.52-.231-.719-.814-.719C162.365,165.088,161.5,165.088,160.631,165.091Zm18.144,0c-.881,0-1.762,0-2.642,0-.578,0-.787.2-.792.737q0,1.411,0,2.82c0,.475.239.706.75.708q2.665.01,5.326,0c.5,0,.775-.24.78-.694.01-.952.012-1.907,0-2.859,0-.511-.234-.708-.785-.712C180.534,165.086,179.653,165.091,178.775,165.091Zm-27.212,0c-.9,0-1.789,0-2.684,0-.526,0-.753.208-.755.69-.007.952,0,1.907,0,2.861,0,.489.236.71.785.712q2.642.01,5.287,0c.527,0,.782-.242.785-.726q.011-1.411,0-2.823c0-.5-.234-.715-.775-.717C153.324,165.086,152.443,165.088,151.562,165.091Z" transform="translate(734.248 117.786)"/>
      <g id="Rectangle_4445" data-name="Rectangle 4445" class="cls-3" transform="translate(909.136 274.974)">
        <rect class="cls-10" width="7.7" height="5.5"/>
        <rect class="cls-1" x="0.75" y="0.75" width="6.2" height="4"/>
      </g>
      <g id="Rectangle_4635" data-name="Rectangle 4635" class="cls-4" transform="translate(884.434 260.469)">
        <rect class="cls-10" width="29.556" height="6.563" rx="1.638"/>
        <rect class="cls-1" x="-0.75" y="-0.75" width="31.056" height="8.063" rx="2.388"/>
      </g>
      <path id="Path_20069" data-name="Path 20069" class="cls-5" d="M143,163.424q0-11.433,0-22.869c0-2.011,1.439-3.329,3.636-3.329,12.245,0,24.492.016,36.736-.016a3.453,3.453,0,0,1,3.653,3.345q-.037,22.887-.015,45.774c0,1.986-1.447,3.311-3.617,3.311-12.244,0-24.489-.018-36.734.018a3.467,3.467,0,0,1-3.678-3.4C143.023,178.643,143,171.035,143,163.424Z" transform="translate(734.248 117.786)"/>
      <g id="Group_20326" data-name="Group 20326" transform="translate(10483 -13173)">
        <g id="Group_20327" data-name="Group 20327">
          <g id="Ellipse_1000" data-name="Ellipse 1000" class="cls-6" transform="translate(-9572 13421)">
            <circle class="cls-10" cx="10.32" cy="10.32" r="10.32"/>
            <circle class="cls-1" cx="10.32" cy="10.32" r="9.57"/>
          </g>
          <path id="Path_20054" data-name="Path 20054" class="cls-7" d="M5.539,3.649l0,.039A2.718,2.718,0,0,1,4.546,5.4a4.8,4.8,0,0,1-2.495.869l-.02,0,3.46,2.969a.565.565,0,0,1,.146.241.487.487,0,0,1-.084.383.54.54,0,0,1-.234.158.479.479,0,0,1-.4-.079L4.9,9.93.571,6.215a.386.386,0,0,1-.04-.042A.475.475,0,0,1,.617,5.49a1.176,1.176,0,0,1,.625-.08A5.372,5.372,0,0,0,3.6,4.927,1.864,1.864,0,0,0,4.611,3.664l0-.015H.454a.454.454,0,0,1-.027-.907l.027,0H4.611A2.7,2.7,0,0,0,2.181.923l-.029,0H.454A.47.47,0,0,1,0,.492.529.529,0,0,1,.075.214.48.48,0,0,1,.431.01H6.574c.044,0,0-.039.176.036a.471.471,0,0,1,.277.392.6.6,0,0,1-.05.237A.471.471,0,0,1,6.6.917l-.026,0H4.509A2.91,2.91,0,0,1,5.537,2.732V2.74H6.574l.07.006a.463.463,0,0,1,.383.422.593.593,0,0,1-.05.237.471.471,0,0,1-.377.243H5.539Z" transform="translate(-9565.5 13426.504)"/>
        </g>
      </g>
    </g>
    <g id="Group_20349" data-name="Group 20349" class="cls-8" transform="translate(229 -62)">
      <g id="Group_14723" data-name="Group 14723" transform="translate(632 299)">
        <g id="Rectangle_3860" data-name="Rectangle 3860" class="cls-9">
          <rect class="cls-10" width="82" height="82"/>
          <rect class="cls-1" x="0.5" y="0.5" width="81" height="81"/>
        </g>
      </g>
    </g>
  </g>
</svg>
