<svg xmlns="http://www.w3.org/2000/svg" id="Component_99_1" width="82" height="82" viewBox="0 0 82 82">
    <defs>
        <style>
            .cls-6,.cls-7,.cls-9{fill:none}.cls-7{stroke:#076bcf;stroke-linecap:round}.cls-6,.cls-7{stroke-width:1.5px}.cls-6{stroke:#2a3a8d}.cls-8{stroke:none}
        </style>
    </defs>
    <g id="Component_100_1">
        <g id="Group_23297" transform="translate(-282 -271)">
            <g id="Group_22992">
                <g id="Group_21850">
                    <g id="Group_21849" transform="translate(-547 -307)">
                        <g id="Group_21842" transform="translate(556 -266)"/>
                    </g>
                </g>
            </g>
        </g>
        <g id="Group_23298" transform="translate(-732.598 -2046.996)">
            <g id="Group_23299" transform="translate(70 25.002) translate(683 2033.999)">
                <g id="Group_23163">
                    <g id="Group_23161">
                        <g id="Group_23158" transform="translate(9.139 9.692)">
                            <g id="Group_20327" stroke="#076bcf">
                                <g id="Ellipse_1000" fill="#f6f7fb" stroke-linecap="round" stroke-width="1.5px">
                                    <circle cx="7.668" cy="7.668" r="7.668" class="cls-8"/>
                                    <circle cx="7.668" cy="7.668" r="6.918" class="cls-9"/>
                                </g>
                                <path id="Path_20054" fill="#076bcf" fill-rule="evenodd" stroke-width="0.5px" d="M4.116 2.711v.029a2.019 2.019 0 0 1-.738 1.27 3.566 3.566 0 0 1-1.854.646h-.015L4.08 6.864a.42.42 0 0 1 .108.179.362.362 0 0 1-.062.285.4.4 0 0 1-.174.118.356.356 0 0 1-.3-.058l-.011-.008L.424 4.617a.287.287 0 0 1-.03-.031.353.353 0 0 1 .064-.507.874.874 0 0 1 .465-.059 3.991 3.991 0 0 0 1.755-.359 1.385 1.385 0 0 0 .748-.939v-.011H.337a.337.337 0 0 1-.02-.674h3.109A2.01 2.01 0 0 0 1.621.686L1.6.683H.337A.35.35 0 0 1 0 .365.393.393 0 0 1 .055.159.357.357 0 0 1 .32.008h4.565c.032 0 0-.029.131.027a.35.35 0 0 1 .206.291.443.443 0 0 1-.038.174.35.35 0 0 1-.284.181H3.35a2.162 2.162 0 0 1 .764 1.349v.006H4.936a.344.344 0 0 1 .285.313.44.44 0 0 1-.037.176.35.35 0 0 1-.28.181h-.788z" transform="translate(4.829 4.089)"/>
                            </g>
                        </g>
                        <g id="Group_23160" transform="translate(17.211 15.662)">
                            <path id="Path_22720" d="M-15443.5-11738.965v-3.823a1.232 1.232 0 0 0-1.449-1.415c-.769.031-5.354.033-10.374.026" class="cls-6" transform="translate(15468.509 11786.28)"/>
                            <path id="Path_22711" d="M-15446.524-11750.1a10.007 10.007 0 0 1 0-5.736 7.137 7.137 0 0 1 2.512-3.914l-6.537-6.271s-2.832-3.088-.576-5.99 5.512-.592 5.512-.592l6.836 6.582" class="cls-6" transform="translate(15456.924 11787.28)"/>
                            <path id="Path_22712" d="M-15440.3-11785.491s2.841.085 3.8 2.153 6.341 16.567 6.341 16.567a7.392 7.392 0 0 1 0 4.614c-.783 2.812-3.306 17.479-3.306 17.479" class="cls-6" transform="translate(15456.509 11786.28)"/>
                            <path id="Path_22713" d="M-15456.027-11755.436l4.918 11.358" class="cls-6" transform="translate(15456.509 11786.28)"/>
                            <path id="Path_22719" d="M-15455.311-11738.965v-3.823a1.232 1.232 0 0 1 1.449-1.415c.769.031 5.354.033 10.374.026" class="cls-6" transform="translate(15457.509 11786.28)"/>
                        </g>
                        <path id="Path_22995" d="M-4 0h26" class="cls-6" transform="translate(8.5 3.499)"/>
                        <path id="Line_1747" d="M0 0L16.556 0" class="cls-7" transform="translate(6.944 30.499)"/>
                        <path id="Line_1748" d="M0 0L15.104 0" class="cls-7" transform="translate(6.944 33.499)"/>
                    </g>
                </g>
                <g id="Group_23301">
                    <g id="Group_23161-2">
                        <g id="Group_23159" transform="translate(.517 11.043)">
                            <g id="Group_23151" transform="translate(.484 .002)">
                                <path id="Path_22717" d="M-15455.311-11782.205v34.809s-.208 1.233 1.408 1.178a41.622 41.622 0 0 0 3.107-3.667l3.19 3.667 3.681-3.667 3.034 3.667 3.112-3.667 3.461 3.667 2.723-3.667 3.089 3.667" class="cls-6" transform="translate(15455.319 11782.205)"/>
                            </g>
                        </g>
                        <g id="Group_23160-2" transform="translate(17.211 15.662)">
                            <path id="Path_22720-2" d="M-15443.5-11738.965v-3.823a1.232 1.232 0 0 0-1.449-1.415c-.769.031-5.354.033-10.374.026" class="cls-6" transform="translate(15468.509 11786.28)"/>
                            <path id="Path_22711-2" d="M-15446.524-11750.1a10.007 10.007 0 0 1 0-5.736 7.137 7.137 0 0 1 2.512-3.914l-6.537-6.271s-2.832-3.088-.576-5.99 5.512-.592 5.512-.592l6.836 6.582" class="cls-6" transform="translate(15456.924 11787.28)"/>
                            <path id="Path_22712-2" d="M-15440.3-11785.491s2.841.085 3.8 2.153 6.341 16.567 6.341 16.567a7.392 7.392 0 0 1 0 4.614c-.783 2.812-3.306 17.479-3.306 17.479" class="cls-6" transform="translate(15456.509 11786.28)"/>
                            <path id="Path_22713-2" d="M-15456.768-11757.007l5.658 12.93" class="cls-6" transform="translate(15456.509 11786.28)"/>
                            <path id="Path_22719-2" d="M-15455.311-11738.965v-3.823a1.232 1.232 0 0 1 1.449-1.415c.769.031 5.354.033 10.374.026" class="cls-6" transform="translate(15457.509 11786.28)"/>
                        </g>
                        <g id="Group_23300" transform="translate(1 -1.086)">
                            <g id="Group_23151-2">
                                <path id="Path_22717-2" d="M-15455.312-11746.216v-34.809s-.208-1.233 1.408-1.178c.679.023 7.635.028 12.853.022l6.733-.022" class="cls-6" transform="translate(15455.32 11782.204)"/>
                            </g>
                        </g>
                        <g id="Group_23302" transform="translate(7 -1.086)">
                            <g id="Group_23151-3" transform="translate(6.031)">
                                <path id="Path_22717-3" d="M-15434.325-11746.216v-34.809s.208-1.233-1.408-1.178c-.679.023-7.635.028-12.853.022l-6.733-.022" class="cls-6" transform="translate(15455.319 11782.204)"/>
                            </g>
                        </g>
                    </g>
                </g>
            </g>
        </g>
    </g>
</svg>
