<svg xmlns="http://www.w3.org/2000/svg" width="82" height="82" viewBox="0 0 82 82">
  <defs>
    <style>
      .cls-1, .cls-10, .cls-12 {
        fill: none;
      }

      .cls-1 {
        opacity: 0.98;
      }

      .cls-2 {
        fill: #f6f7fb;
        stroke-linecap: round;
        stroke-linejoin: round;
      }

      .cls-2, .cls-6, .cls-7 {
        stroke: #2a3a8d;
      }

      .cls-2, .cls-6 {
        stroke-width: 1.5px;
      }

      .cls-3 {
        fill: #fdc688;
      }

      .cls-4 {
        fill: #eaac67;
      }

      .cls-5 {
        fill: #d96060;
      }

      .cls-6 {
        fill: #f5f5f5;
      }

      .cls-7 {
        fill: #2a3a8d;
        stroke-width: 0.3px;
        fill-rule: evenodd;
      }

      .cls-8 {
        fill: #fff;
        stroke: #0875e2;
        stroke-width: 1.2px;
      }

      .cls-9 {
        opacity: 0;
      }

      .cls-10 {
        stroke: #e2e2e2;
      }

      .cls-11 {
        stroke: none;
      }
    </style>
  </defs>
  <g id="Group_20366" data-name="Group 20366" transform="translate(-1206 -540)">
    <g id="Group_19540" data-name="Group 19540" transform="translate(11.32 2.32)">
      <rect id="Rectangle_4440" data-name="Rectangle 4440" class="cls-1" width="72" height="72" rx="23" transform="translate(1271.68 542.68) rotate(90)"/>
      <path id="Path_18122" data-name="Path 18122" class="cls-2" d="M52.616,70.707a.558.558,0,0,0-.411-.538l-24.32-6.637a.558.558,0,0,1-.411-.538V57.731c0-2.51-5.79-4.545-12.933-4.545S1.608,55.221,1.608,57.731V98.5H.558A.558.558,0,0,0,0,99.054v1.864a.558.558,0,0,0,.558.558H53.665C53.974,101.475,54.223,101.226,52.616,70.707Z" transform="translate(1207.416 501.851)"/>
      <path id="Path_18106" data-name="Path 18106" class="cls-3" d="M222.545,273.652a1.2,1.2,0,0,0-.335-.244,4.049,4.049,0,0,0-.85-.3v2.249a1.6,1.6,0,0,0,1.259-.664h0a1.027,1.027,0,0,0,.093-.7A.706.706,0,0,0,222.545,273.652Z" transform="translate(1037.774 298.086)"/>
      <path id="Path_18107" data-name="Path 18107" class="cls-3" d="M242.6,299.9l0,0h0Z" transform="translate(1017.786 272.879)"/>
      <path id="Path_18103" data-name="Path 18103" class="cls-3" d="M181.593,212.664a.843.843,0,0,0-.146.4.948.948,0,0,0,.048.437.7.7,0,0,0,.272.3,2.127,2.127,0,0,0,.4.209c.118.047.251.093.394.137v-2.035A1.553,1.553,0,0,0,181.593,212.664Z" transform="translate(1075.331 355.48)"/>
      <path id="Path_18108" data-name="Path 18108" class="cls-3" d="M242.656,299.619l-.009.017h0Z" transform="translate(1017.746 273.143)"/>
      <path id="Path_18109" data-name="Path 18109" class="cls-3" d="M243,299.245Z" transform="translate(1017.41 273.496)"/>
      <path id="Path_18110" data-name="Path 18110" class="cls-3" d="M242.346,300.169l-.009.016Z" transform="translate(1018.038 272.626)"/>
      <path id="Path_18111" data-name="Path 18111" class="cls-4" d="M242.6,299.9l0,0h0Z" transform="translate(1017.786 272.879)"/>
      <path id="Path_18112" data-name="Path 18112" class="cls-4" d="M242.656,299.619l-.009.017h0Z" transform="translate(1017.746 273.143)"/>
      <path id="Path_18113" data-name="Path 18113" class="cls-4" d="M243,299.245Z" transform="translate(1017.41 273.496)"/>
      <path id="Path_18105" data-name="Path 18105" class="cls-5" d="M76.2,5.47c1.912-1.606,3.19-5.225,2.4-5.384C77.562-.124,75.293.8,74.2.961c-1.555.188-3.249-1.687-4.2-.642-.773.85.554,3.939,2.631,5.285Z" transform="translate(1183.723 555.039)"/>
      <path id="Path_18114" data-name="Path 18114" class="cls-4" d="M242.346,300.169l-.009.016Z" transform="translate(1018.038 272.626)"/>
      <path id="Path_18100" data-name="Path 18100" class="cls-6" d="M47.98,5.47c1.912-1.606,3.19-5.225,2.4-5.384-1.045-.21-3.314.712-4.41.875-1.555.188-3.249-1.687-4.2-.642C41,1.168,42.328,4.258,44.4,5.6c-6.2,3.045-14.905,18.333.288,19.442C65.715,26.581,55.189,8.437,47.98,5.47Z" transform="translate(1211.946 555.039)"/>
      <path id="Path_18104" data-name="Path 18104" class="cls-7" d="M549.416,134.1l0,.038a2.636,2.636,0,0,1-.958,1.658,4.653,4.653,0,0,1-2.419.843l-.019,0,3.355,2.878a.547.547,0,0,1,.141.233.472.472,0,0,1-.081.371.524.524,0,0,1-.227.154.464.464,0,0,1-.391-.076l-.015-.011-4.2-3.6a.379.379,0,0,1-.039-.041.461.461,0,0,1,.083-.662,1.141,1.141,0,0,1,.606-.077,5.209,5.209,0,0,0,2.291-.468,1.807,1.807,0,0,0,.976-1.225l0-.015h-4.035a.44.44,0,0,1-.027-.879l.027,0h4.031a2.623,2.623,0,0,0-2.356-1.761l-.028,0h-1.647a.456.456,0,0,1-.439-.415.513.513,0,0,1,.071-.27.466.466,0,0,1,.346-.2h5.956c.042,0,0-.038.171.035a.457.457,0,0,1,.269.38.579.579,0,0,1-.049.23.456.456,0,0,1-.365.236l-.025,0h-2a2.821,2.821,0,0,1,1,1.757v.007h1.005l.068.006a.449.449,0,0,1,.371.409.575.575,0,0,1-.049.23.457.457,0,0,1-.365.236h-1.029Z" transform="translate(710.706 435.941)"/>
      <g id="Group_19473" data-name="Group 19473" transform="translate(1211.141 561.861)">
        <path id="Path_18123" data-name="Path 18123" class="cls-8" d="M8.326,97.053a.578.578,0,0,1-.421.555,17.672,17.672,0,0,0-2.186.767.577.577,0,0,1-.808-.527V95.309a.579.579,0,0,1,.329-.52A15.985,15.985,0,0,1,7.583,93.9a.577.577,0,0,1,.743.552Zm0-6.16a.578.578,0,0,1-.421.555,17.668,17.668,0,0,0-2.186.767.577.577,0,0,1-.808-.527V89.149a.579.579,0,0,1,.329-.52,15.985,15.985,0,0,1,2.344-.892.577.577,0,0,1,.743.552Zm0-6.16a.578.578,0,0,1-.421.555,17.668,17.668,0,0,0-2.186.767.577.577,0,0,1-.808-.527V82.99a.579.579,0,0,1,.329-.52,15.982,15.982,0,0,1,2.344-.892.577.577,0,0,1,.743.552Zm0-6.16a.578.578,0,0,1-.421.555,17.682,17.682,0,0,0-2.186.767.577.577,0,0,1-.808-.527V76.83a.579.579,0,0,1,.329-.52,15.986,15.986,0,0,1,2.344-.892.577.577,0,0,1,.743.552Zm0-6.16a.578.578,0,0,1-.421.555,17.668,17.668,0,0,0-2.186.767.577.577,0,0,1-.808-.527V70.67a.579.579,0,0,1,.329-.52,15.986,15.986,0,0,1,2.344-.892.577.577,0,0,1,.743.552Zm0-6.16a.578.578,0,0,1-.421.555,17.68,17.68,0,0,0-2.186.767.577.577,0,0,1-.808-.527V64.511a.579.579,0,0,1,.329-.52A15.986,15.986,0,0,1,7.583,63.1a.577.577,0,0,1,.743.552ZM16.39,95.908a.576.576,0,0,1-.559.576,37.088,37.088,0,0,0-5.369.54.576.576,0,0,1-.679-.567V93.823a.575.575,0,0,1,.469-.566,36.785,36.785,0,0,1,5.545-.578.577.577,0,0,1,.594.576v2.653Zm0-6.16a.576.576,0,0,1-.559.576,37.082,37.082,0,0,0-5.369.541.576.576,0,0,1-.679-.567V87.664a.575.575,0,0,1,.469-.566A36.775,36.775,0,0,1,15.8,86.52a.577.577,0,0,1,.594.576v2.653Zm0-6.16a.576.576,0,0,1-.559.576,37.073,37.073,0,0,0-5.369.54c-.354.064-.679-.207-.679-3.2a.576.576,0,0,1,.469-.566A36.8,36.8,0,0,1,15.8,80.36a.577.577,0,0,1,.594.576v2.653Zm0-6.16a.576.576,0,0,1-.559.576,37.089,37.089,0,0,0-5.369.54.576.576,0,0,1-.679-.567V75.345a.576.576,0,0,1,.469-.566A36.794,36.794,0,0,1,15.8,74.2a.577.577,0,0,1,.594.576v2.653Zm0-6.16c0,.312-4.293.823-5.929,1.116a.576.576,0,0,1-.679-.567V69.185a.575.575,0,0,1,.469-.566,36.775,36.775,0,0,1,5.545-.578.577.577,0,0,1,.594.576V71.27Zm0-6.16a.576.576,0,0,1-.559.576,37.06,37.06,0,0,0-5.369.54.576.576,0,0,1-.679-.567V63.025a.575.575,0,0,1,.469-.566,36.793,36.793,0,0,1,5.545-.578.577.577,0,0,1,.594.576V65.11Zm8.064,31.347a.576.576,0,0,1-.679.567,37.07,37.07,0,0,0-5.369-.54.576.576,0,0,1-.559-.576V93.256a.577.577,0,0,1,.594-.576,36.778,36.778,0,0,1,5.545.578.575.575,0,0,1,.469.566v2.634Zm0-6.16a.576.576,0,0,1-.679.567,37.084,37.084,0,0,0-5.369-.541.576.576,0,0,1-.559-.576V87.1a.577.577,0,0,1,.594-.576,36.781,36.781,0,0,1,5.545.578.575.575,0,0,1,.469.566V90.3Zm0-6.16a.576.576,0,0,1-.679.567,37.071,37.071,0,0,0-5.369-.54.576.576,0,0,1-.559-.576V80.937a.576.576,0,0,1,.594-.576,36.775,36.775,0,0,1,5.545.578.575.575,0,0,1,.469.566v2.634Zm0-6.16a.576.576,0,0,1-.679.567,37.076,37.076,0,0,0-5.369-.54.576.576,0,0,1-.559-.576V74.777a.577.577,0,0,1,.594-.576,36.792,36.792,0,0,1,5.545.578.575.575,0,0,1,.469.566v2.634Zm0-6.16a.576.576,0,0,1-.679.567,37.067,37.067,0,0,0-5.369-.54.576.576,0,0,1-.559-.576V68.617a.577.577,0,0,1,.594-.576,36.777,36.777,0,0,1,5.545.578.575.575,0,0,1,.469.566v2.634Zm0-6.16a.576.576,0,0,1-.679.567,37.066,37.066,0,0,0-5.369-.54.576.576,0,0,1-.559-.576V62.458a.577.577,0,0,1,.594-.576,36.774,36.774,0,0,1,5.545.578.575.575,0,0,1,.469.566V65.66Z" transform="translate(-3.91 -63.881)"/>
      </g>
    </g>
    <g id="Group_20354" data-name="Group 20354" class="cls-9" transform="translate(574 241)">
      <g id="Group_14723" data-name="Group 14723" transform="translate(632 299)">
        <g id="Rectangle_3860" data-name="Rectangle 3860" class="cls-10">
          <rect class="cls-11" width="82" height="82"/>
          <rect class="cls-12" x="0.5" y="0.5" width="81" height="81"/>
        </g>
      </g>
    </g>
  </g>
</svg>
