<svg xmlns="http://www.w3.org/2000/svg" width="55.42" height="69.358" viewBox="0 0 55.42 69.358">
  <g id="Group_33148" data-name="Group 33148" transform="translate(1847 -6650.642)">
    <g id="Grievance_module_light_mode" data-name="Grievance module_light_mode" transform="translate(-22 224.642)">
      <path id="Path_24512" data-name="Path 24512" d="M13.514,0H42.053A5,5,0,0,1,47,5.044v59.27a5,5,0,0,1-4.947,5.044H4.947A5,5,0,0,1,0,64.314V13.2Z" transform="translate(-1825 6426)" fill="#f6f7fb"/>
      <path id="Path_24512_-_Outline" data-name="Path 24512 - Outline" d="M13.921,1,1,13.625v50.69a4,4,0,0,0,3.947,4.044H42.053A4,4,0,0,0,46,64.314V5.044A4,4,0,0,0,42.053,1H13.921m-.407-1H42.053A5,5,0,0,1,47,5.044v59.27a5,5,0,0,1-4.947,5.044H4.947A5,5,0,0,1,0,64.314V13.2Z" transform="translate(-1825 6426)" fill="#002e76"/>
      <g id="Group_20319" transform="translate(-1824.475 6427.203)">
        <path id="Path_20053" d="M3.4,12.8H-9.992v-1H2.9V0h1V12.3A.5.5,0,0,1,3.4,12.8Z" transform="translate(10.122 -0.305)" fill="#002e76"/>
      </g>
      <g id="Group_33142" data-name="Group 33142" transform="translate(-2071.58 6391.445)">
        <g id="Group_21146" data-name="Group 21146" transform="translate(284 77.706)">
          <circle id="Ellipse_910" data-name="Ellipse 910" cx="9" cy="9" r="9" transform="translate(0 0.207)" fill="#fff"/>
          <path id="Ellipse_910_-_Outline" data-name="Ellipse 910 - Outline" d="M9,1a8,8,0,1,0,8,8A8.009,8.009,0,0,0,9,1M9,0A9,9,0,1,1,0,9,9,9,0,0,1,9,0Z" transform="translate(0 0.207)" fill="#002e76"/>
        </g>
      </g>
      <g id="Group_21843" transform="translate(-1817.08 6478.358)">
        <g id="Path_18118" transform="translate(0.001 4.595)">
          <path id="Path_24504" data-name="Path 24504" d="M.624,1.336H9.211A.648.648,0,0,0,9.836.668.648.648,0,0,0,9.211,0H.625A.647.647,0,0,0,0,.668.647.647,0,0,0,.624,1.336Z" fill="#2183e5"/>
        </g>
        <g id="Path_18118-2" data-name="Path_18118" transform="translate(13.23 9.114)">
          <path id="Path_24504-2" data-name="Path 24504" d="M.624,1.336H9.211A.648.648,0,0,0,9.836.668.648.648,0,0,0,9.211,0H.625A.647.647,0,0,0,0,.668.647.647,0,0,0,.624,1.336Z" fill="#2183e5"/>
        </g>
        <g id="Path_18293" transform="translate(0.001 0)">
          <path id="Path_24506" data-name="Path 24506" d="M.624,1.336H4.6A.648.648,0,0,0,5.229.668.648.648,0,0,0,4.6,0H.625A.647.647,0,0,0,0,.668.647.647,0,0,0,.624,1.336Z" fill="#2183e5"/>
        </g>
        <g id="Path_18293-2" data-name="Path_18293" transform="translate(8.001 0.057)">
          <path id="Path_24506-2" data-name="Path 24506" d="M.624,1.336H4.6A.648.648,0,0,0,5.229.668.648.648,0,0,0,4.6,0H.625A.647.647,0,0,0,0,.668.647.647,0,0,0,.624,1.336Z" fill="#2183e5"/>
        </g>
        <g id="Path_18293-3" data-name="Path_18293" transform="translate(12.001 4.595)">
          <path id="Path_24506-3" data-name="Path 24506" d="M.624,1.336H4.6A.648.648,0,0,0,5.229.668.648.648,0,0,0,4.6,0H.625A.647.647,0,0,0,0,.668.647.647,0,0,0,.624,1.336Z" fill="#2183e5"/>
        </g>
        <g id="Path_18293-4" data-name="Path_18293" transform="translate(19.001 4.595)">
          <path id="Path_24506-4" data-name="Path 24506" d="M.624,1.336H4.6A.648.648,0,0,0,5.229.668.648.648,0,0,0,4.6,0H.625A.647.647,0,0,0,0,.668.647.647,0,0,0,.624,1.336Z" fill="#2183e5"/>
        </g>
        <g id="Path_22116" transform="translate(0 9.114)">
          <path id="Path_24510" data-name="Path 24510" d="M.624,1.336h10.43a.648.648,0,0,0,.625-.668A.648.648,0,0,0,11.054,0H.625A.647.647,0,0,0,0,.668.647.647,0,0,0,.624,1.336Z" fill="#2183e5"/>
        </g>
      </g>
    </g>
    <g id="Group_33145" data-name="Group 33145" transform="translate(230.455 -48.242)">
      <path id="Path_24513" data-name="Path 24513" d="M-2018.6,6711.489l.175.67c.005.021.541,2.061,1.524,4.854.577,1.64,1.193,3.214,1.831,4.681a47.784,47.784,0,0,0,2.473,4.946,42.624,42.624,0,0,0,2.969,4.406c.9,1.179,1.885,2.354,2.925,3.493,1.771,1.941,3.106,3.118,3.119,3.129l.518.455-.688.037c-.009,0-.229.012-.6.012a18.478,18.478,0,0,1-2.673-.192c-.869-.13-1.794-.305-2.774-.49a42.173,42.173,0,0,0-4.949-.743c-.559-.033-1.1-.05-1.594-.05a13.481,13.481,0,0,0-2.77.235,3.351,3.351,0,0,0-.767.234l-.245.146-.137-.253-5.857-10.341.174-.15a10.21,10.21,0,0,0,.962-1.011,15.08,15.08,0,0,0,1.907-2.88,30.919,30.919,0,0,0,1.328-3.616c.373-1.138.759-2.314,1.182-3.417a28.931,28.931,0,0,1,1.621-3.555Zm14.122,26.122c-.556-.523-1.509-1.452-2.634-2.686-1.051-1.151-2.047-2.34-2.958-3.533a43.082,43.082,0,0,1-3.011-4.469,48.347,48.347,0,0,1-2.5-5.008c-.643-1.479-1.264-3.067-1.846-4.72-.651-1.85-1.108-3.374-1.346-4.207-.3.6-.779,1.6-1.26,2.86-.418,1.089-.8,2.259-1.173,3.39a31.1,31.1,0,0,1-1.361,3.7,15.628,15.628,0,0,1-1.989,3,12.147,12.147,0,0,1-.843.9l5.511,9.731a5.031,5.031,0,0,1,.611-.172,14,14,0,0,1,2.941-.26c.51,0,1.057.017,1.627.051a42.582,42.582,0,0,1,5.02.751c.974.184,1.895.357,2.753.486A17.876,17.876,0,0,0-2004.477,6737.611Z" transform="translate(-35.289 -4.369)" fill="#002e76"/>
      <path id="Path_24513_-_Outline" data-name="Path 24513 - Outline" d="M-2018.548,6711.093l.269,1.028c.005.021.544,2.067,1.521,4.843.577,1.639,1.192,3.21,1.827,4.67a47.58,47.58,0,0,0,2.465,4.931,42.428,42.428,0,0,0,2.958,4.391c.9,1.177,1.881,2.349,2.916,3.483,1.725,1.891,3.051,3.068,3.107,3.117l.8.7-1.056.056c-.01,0-.235.012-.6.012a18.664,18.664,0,0,1-2.7-.194c-.858-.129-1.769-.3-2.734-.482l-.045-.008a42.031,42.031,0,0,0-4.93-.74c-.554-.033-1.087-.05-1.586-.05a13.36,13.36,0,0,0-2.738.232,3.347,3.347,0,0,0-.726.22l-.375.224-.211-.391-5.916-10.446.267-.23a10.175,10.175,0,0,0,.945-.994,14.951,14.951,0,0,0,1.888-2.851,30.783,30.783,0,0,0,1.319-3.6l.006-.02c.372-1.133.756-2.3,1.178-3.4a28.964,28.964,0,0,1,1.631-3.575Zm15.107,26.9-.242-.212c-.057-.051-1.4-1.239-3.131-3.141-1.041-1.141-2.028-2.319-2.933-3.5a42.8,42.8,0,0,1-2.979-4.422,48.013,48.013,0,0,1-2.481-4.962c-.638-1.467-1.255-3.045-1.835-4.691-.981-2.787-1.523-4.846-1.528-4.866l-.082-.312-.159.281a29.078,29.078,0,0,0-1.612,3.535c-.42,1.092-.8,2.26-1.173,3.39l-.006.02a30.905,30.905,0,0,1-1.336,3.637,15.228,15.228,0,0,1-1.927,2.909,10.411,10.411,0,0,1-.977,1.027l-.082.071,5.8,10.234.064.118.12-.071a3.509,3.509,0,0,1,.8-.247,13.623,13.623,0,0,1,2.8-.239c.5,0,1.044.017,1.6.05a42.358,42.358,0,0,1,4.968.745l.045.009c.962.181,1.87.352,2.723.48a18.325,18.325,0,0,0,2.651.191c.362,0,.58-.011.589-.012Zm-15.3-25.417.105.37c.217.759.68,2.313,1.343,4.2.581,1.65,1.2,3.235,1.842,4.71a48.191,48.191,0,0,0,2.5,4.993,42.922,42.922,0,0,0,3,4.453c.909,1.189,1.9,2.375,2.95,3.523,1.1,1.208,2.036,2.123,2.626,2.677l.278.262-.382,0a18.031,18.031,0,0,1-2.483-.187c-.851-.128-1.76-.3-2.723-.48l-.036-.007a42.321,42.321,0,0,0-5-.749c-.567-.034-1.112-.051-1.619-.051a13.867,13.867,0,0,0-2.909.256,4.957,4.957,0,0,0-.593.167l-.119.043-.062-.11-5.568-9.832.084-.081a11.912,11.912,0,0,0,.832-.893,15.466,15.466,0,0,0,1.97-2.97,31.039,31.039,0,0,0,1.352-3.674c.371-1.132.755-2.3,1.175-3.4.478-1.245.952-2.25,1.266-2.874Zm13.878,24.876c-.59-.566-1.415-1.39-2.362-2.428-1.054-1.155-2.052-2.347-2.967-3.543a43.263,43.263,0,0,1-3.022-4.485,48.491,48.491,0,0,1-2.512-5.023c-.644-1.481-1.267-3.073-1.85-4.73-.571-1.624-.995-3-1.241-3.844-.3.616-.69,1.477-1.083,2.5-.418,1.088-.8,2.254-1.17,3.383a31.16,31.16,0,0,1-1.369,3.716,15.787,15.787,0,0,1-2.008,3.029c-.314.371-.581.649-.77.834l5.392,9.522c.15-.049.321-.094.509-.136a14.15,14.15,0,0,1,2.974-.263c.513,0,1.063.017,1.636.051a42.655,42.655,0,0,1,5.039.754l.035.007c.96.181,1.867.352,2.712.479A17.591,17.591,0,0,0-2004.86,6737.455Z" transform="translate(-35.289 -4.369)" fill="#002e76"/>
      <path id="Path_24514" data-name="Path 24514" d="M-2062.011,6796.556l5.59,9.66-.173.152a16.535,16.535,0,0,1-2.295,1.621,13.765,13.765,0,0,1-2.341,1.116,8.1,8.1,0,0,1-2.7.513,5.154,5.154,0,0,1-2.507-.616,5.979,5.979,0,0,1-2.174-2.153,5.041,5.041,0,0,1-.659-4.477,6.633,6.633,0,0,1,1.673-2.49,12.845,12.845,0,0,1,2.353-1.785,18.109,18.109,0,0,1,3.012-1.463Zm4.87,9.538-5.12-8.848a18.371,18.371,0,0,0-2.7,1.337,12.3,12.3,0,0,0-2.245,1.7,6.076,6.076,0,0,0-1.532,2.272,4.027,4.027,0,0,0-.2,1.853,5.357,5.357,0,0,0,.808,2.14,5.425,5.425,0,0,0,1.966,1.957,4.6,4.6,0,0,0,2.237.547,7.536,7.536,0,0,0,2.51-.48,13.184,13.184,0,0,0,2.244-1.07A16.97,16.97,0,0,0-2057.142,6806.093Z" transform="translate(0 -73.506)" fill="#002e76"/>
      <path id="Path_24514_-_Outline" data-name="Path 24514 - Outline" d="M-2061.944,6796.373l.062.107,5.651,9.767-.266.234a16.771,16.771,0,0,1-2.318,1.638,13.9,13.9,0,0,1-2.366,1.127,8.242,8.242,0,0,1-2.75.521,5.3,5.3,0,0,1-2.579-.635,6.12,6.12,0,0,1-2.229-2.206,5.183,5.183,0,0,1-.673-4.606,6.778,6.778,0,0,1,1.71-2.547,13,13,0,0,1,2.38-1.807,18.435,18.435,0,0,1,3.037-1.475Zm5.331,9.812-5.466-9.446-.1.036a18.137,18.137,0,0,0-2.984,1.45,12.688,12.688,0,0,0-2.325,1.764,6.489,6.489,0,0,0-1.636,2.433,4.9,4.9,0,0,0,.645,4.348,5.834,5.834,0,0,0,2.118,2.1,5.007,5.007,0,0,0,2.435.6,7.947,7.947,0,0,0,2.649-.5,13.63,13.63,0,0,0,2.315-1.1,16.381,16.381,0,0,0,2.272-1.6Zm-5.583-9.126,5.248,9.07-.1.081a17.062,17.062,0,0,1-2.052,1.425,13.35,13.35,0,0,1-2.269,1.082,7.684,7.684,0,0,1-2.561.489,4.748,4.748,0,0,1-2.309-.566,5.567,5.567,0,0,1-2.021-2.009,5.508,5.508,0,0,1-.83-2.2,4.178,4.178,0,0,1,.209-1.921,6.223,6.223,0,0,1,1.569-2.33,12.478,12.478,0,0,1,2.272-1.726,18.536,18.536,0,0,1,2.724-1.348Zm4.86,9-4.991-8.625a18.391,18.391,0,0,0-2.558,1.278,12.137,12.137,0,0,0-2.217,1.683,5.929,5.929,0,0,0-1.5,2.215,3.875,3.875,0,0,0-.194,1.785,5.208,5.208,0,0,0,.787,2.08,5.282,5.282,0,0,0,1.911,1.9,4.457,4.457,0,0,0,2.165.529,7.391,7.391,0,0,0,2.46-.472,13.029,13.029,0,0,0,2.218-1.059A16.868,16.868,0,0,0-2057.336,6806.057Z" transform="translate(0 -73.506)" fill="#002e76"/>
      <path id="Path_24515" data-name="Path 24515" d="M-2023.382,6854.7l0,.6a6.819,6.819,0,0,0,.179,1.292,9.017,9.017,0,0,0,1.2,2.87c.142.221.292.445.449.683,1.036,1.56,2.211,3.327,1.9,4.77a2.276,2.276,0,0,1-1.1,1.458l-.01.005a4.375,4.375,0,0,1-2.146.629,3.866,3.866,0,0,1-2.866-1.415,10.475,10.475,0,0,1-1.814-2.993,21.41,21.41,0,0,1-.989-2.952c-.207-.8-.3-1.324-.305-1.346l-.041-.231.22-.081a18.473,18.473,0,0,0,2.3-1.076,20.169,20.169,0,0,0,2.571-1.824Zm2.335,11.19a1.713,1.713,0,0,0,.846-1.1,3.252,3.252,0,0,0-.421-2.025,19.987,19.987,0,0,0-1.395-2.314c-.159-.239-.309-.464-.454-.689a9.43,9.43,0,0,1-.845-1.647,9.594,9.594,0,0,1-.437-1.422c-.074-.33-.119-.615-.146-.84a18.451,18.451,0,0,1-2.24,1.545,19.284,19.284,0,0,1-2.152,1.026,22.127,22.127,0,0,0,1.218,3.958,9.915,9.915,0,0,0,1.71,2.828,4.238,4.238,0,0,0,1.133.9,2.82,2.82,0,0,0,1.317.331A3.822,3.822,0,0,0-2021.047,6865.887Z" transform="translate(-33.002 -120.759)" fill="#002e76"/>
      <path id="Path_24515_-_Outline" data-name="Path 24515 - Outline" d="M-2023.234,6854.375l.005.92a6.662,6.662,0,0,0,.176,1.26,8.862,8.862,0,0,0,1.181,2.821c.133.207.273.417.42.639l.028.042c1.053,1.584,2.246,3.38,1.918,4.884a2.419,2.419,0,0,1-1.172,1.553l-.016.009a4.522,4.522,0,0,1-2.219.647,4.009,4.009,0,0,1-2.977-1.463,10.616,10.616,0,0,1-1.842-3.036,21.541,21.541,0,0,1-1-2.973c-.208-.8-.3-1.335-.308-1.357l-.063-.355.338-.125a18.45,18.45,0,0,0,2.275-1.066,19.9,19.9,0,0,0,2.545-1.806Zm2.4,11.863a2.13,2.13,0,0,0,1.033-1.36c.3-1.38-.855-3.12-1.875-4.655l-.028-.042c-.148-.223-.288-.434-.422-.642a9.176,9.176,0,0,1-1.222-2.918,6.925,6.925,0,0,1-.183-1.325l0-.278-.214.18a20.214,20.214,0,0,1-2.595,1.84,18.826,18.826,0,0,1-2.319,1.086l-.1.038.019.107c0,.022.1.544.3,1.334a21.3,21.3,0,0,0,.982,2.931,10.324,10.324,0,0,0,1.786,2.95,3.724,3.724,0,0,0,2.756,1.366,4.229,4.229,0,0,0,2.073-.609Zm-2.949-10.669.032.266c.033.269.081.546.144.826a9.433,9.433,0,0,0,.43,1.4,9.3,9.3,0,0,0,.831,1.621c.138.214.28.428.432.656l.029.044a19.956,19.956,0,0,1,1.4,2.32,3.387,3.387,0,0,1,.432,2.122,1.855,1.855,0,0,1-.914,1.192l-.005,0a3.971,3.971,0,0,1-1.939.572,2.969,2.969,0,0,1-1.387-.348,4.388,4.388,0,0,1-1.174-.93,10.06,10.06,0,0,1-1.737-2.871,22.182,22.182,0,0,1-1.227-3.986l-.025-.123.117-.046a19.4,19.4,0,0,0,2.134-1.018,18.442,18.442,0,0,0,2.221-1.532Zm2.657,10.189a1.569,1.569,0,0,0,.776-1,3.119,3.119,0,0,0-.41-1.929,19.775,19.775,0,0,0-1.376-2.283l-.029-.044c-.152-.228-.3-.444-.434-.66a9.585,9.585,0,0,1-.858-1.673,9.748,9.748,0,0,1-.443-1.444c-.045-.2-.082-.4-.113-.594a17.929,17.929,0,0,1-2.055,1.4,19.307,19.307,0,0,1-2.052.987,21.8,21.8,0,0,0,1.183,3.808,9.769,9.769,0,0,0,1.682,2.785,4.086,4.086,0,0,0,1.093.868,2.675,2.675,0,0,0,1.248.314A3.677,3.677,0,0,0-2021.124,6865.758Z" transform="translate(-33.002 -120.759)" fill="#002e76"/>
      <path id="Path_24516" data-name="Path 24516" d="M-1979.227,6706.114c.03,0,.061,0,.092,0a3.925,3.925,0,0,1,1.9.991,19.54,19.54,0,0,1,2.409,2.42,45.131,45.131,0,0,1,2.771,3.613c.988,1.418,1.964,2.955,2.9,4.566a59.041,59.041,0,0,1,4.4,9.2,21.8,21.8,0,0,1,.986,3.465,4.331,4.331,0,0,1-.028,2.261.758.758,0,0,1-.731.5,3.088,3.088,0,0,1-1.69-.853,19.587,19.587,0,0,1-2.089-2.019,46.286,46.286,0,0,1-4.131-5.3l-.134-.2.182-.162a7.3,7.3,0,0,0,1.241-2.122,4.151,4.151,0,0,0,.126-3.333,4.186,4.186,0,0,0-1.423-1.621,3.472,3.472,0,0,0-1.907-.544,5.114,5.114,0,0,0-2.022.456l-.234.1-.123-.223a35.983,35.983,0,0,1-2.765-6.386,15.51,15.51,0,0,1-.616-2.633,2.9,2.9,0,0,1,.164-1.761A.8.8,0,0,1-1979.227,6706.114Zm14.7,26.457a.2.2,0,0,0,.213-.153,3.709,3.709,0,0,0-.006-1.947,21.272,21.272,0,0,0-.962-3.373,58.493,58.493,0,0,0-4.362-9.108,56.216,56.216,0,0,0-5.612-8.1,19,19,0,0,0-2.336-2.349,3.312,3.312,0,0,0-1.593-.868l-.042,0a.249.249,0,0,0-.238.142,2.369,2.369,0,0,0-.09,1.407,15.2,15.2,0,0,0,.595,2.535,35.367,35.367,0,0,0,2.6,6.063,5.526,5.526,0,0,1,2.008-.405,4.232,4.232,0,0,1,3.829,2.467,3.535,3.535,0,0,1,.356,1.923,6.436,6.436,0,0,1-.457,1.877,9.354,9.354,0,0,1-.762,1.506,6.147,6.147,0,0,1-.459.648,45.818,45.818,0,0,0,3.955,5.043,19.028,19.028,0,0,0,2.026,1.96C-1965.074,6732.476-1964.687,6732.571-1964.527,6732.571Z" transform="translate(-72.636 0)" fill="#002e76"/>
      <path id="Path_24516_-_Outline" data-name="Path 24516 - Outline" d="M-1979.227,6705.964c.032,0,.067,0,.1,0a4.057,4.057,0,0,1,1.979,1.023,19.681,19.681,0,0,1,2.428,2.439,45.343,45.343,0,0,1,2.78,3.625c.991,1.423,1.969,2.962,2.907,4.577a59.185,59.185,0,0,1,4.416,9.224,21.953,21.953,0,0,1,.993,3.49,4.461,4.461,0,0,1-.037,2.345.911.911,0,0,1-.87.591,3.208,3.208,0,0,1-1.784-.886,19.736,19.736,0,0,1-2.105-2.035,46.39,46.39,0,0,1-4.146-5.315l-.206-.312.28-.248a7.274,7.274,0,0,0,1.2-2.064,4.01,4.01,0,0,0,.133-3.208,4.039,4.039,0,0,0-1.372-1.565,3.326,3.326,0,0,0-1.826-.521,4.967,4.967,0,0,0-1.963.444l-.359.155-.189-.342a36.143,36.143,0,0,1-2.777-6.414,15.653,15.653,0,0,1-.622-2.66,3.029,3.029,0,0,1,.183-1.856A.957.957,0,0,1-1979.227,6705.964Zm14.7,27.019a.609.609,0,0,0,.593-.407,4.2,4.2,0,0,0,.019-2.177,21.66,21.66,0,0,0-.98-3.441,58.9,58.9,0,0,0-4.393-9.175c-.934-1.607-1.908-3.14-2.894-4.556a44.929,44.929,0,0,0-2.762-3.6,19.394,19.394,0,0,0-2.389-2.4,3.8,3.8,0,0,0-1.816-.958c-.027,0-.054,0-.078,0a.652.652,0,0,0-.593.344,2.777,2.777,0,0,0-.144,1.667,15.337,15.337,0,0,0,.611,2.607,35.808,35.808,0,0,0,2.753,6.358l.058.1.109-.047a5.268,5.268,0,0,1,2.082-.468,3.62,3.62,0,0,1,1.988.568,4.341,4.341,0,0,1,1.475,1.678,4.291,4.291,0,0,1-.12,3.458,7.306,7.306,0,0,1-1.281,2.179l-.085.075.063.1a46.159,46.159,0,0,0,4.117,5.278,19.438,19.438,0,0,0,2.072,2A3.013,3.013,0,0,0-1964.527,6732.982Zm-14.7-26.457c.018,0,.037,0,.057,0a3.572,3.572,0,0,1,1.673.9,19.134,19.134,0,0,1,2.355,2.368,56.35,56.35,0,0,1,5.628,8.118,58.642,58.642,0,0,1,4.374,9.132,21.435,21.435,0,0,1,.968,3.4,3.987,3.987,0,0,1,0,2.031.347.347,0,0,1-.351.246c-.22,0-.646-.132-1.433-.763a19.177,19.177,0,0,1-2.042-1.976,46.239,46.239,0,0,1-3.969-5.061l-.062-.093.072-.086a5.967,5.967,0,0,0,.447-.632,9.181,9.181,0,0,0,.75-1.481,6.282,6.282,0,0,0,.447-1.833,3.385,3.385,0,0,0-.339-1.842,4.088,4.088,0,0,0-3.7-2.387,5.38,5.38,0,0,0-1.954.4l-.123.048-.063-.116a35.686,35.686,0,0,1-2.611-6.09,15.372,15.372,0,0,1-.6-2.561,2.5,2.5,0,0,1,.11-1.5A.4.4,0,0,1-1979.227,6706.525Zm14.7,25.9c.044,0,.049,0,.074-.061a3.575,3.575,0,0,0-.016-1.863,21.142,21.142,0,0,0-.955-3.348,58.358,58.358,0,0,0-4.351-9.083,56.066,56.066,0,0,0-5.6-8.073,18.873,18.873,0,0,0-2.317-2.33,3.179,3.179,0,0,0-1.512-.835h-.029c-.053,0-.074.009-.109.068a2.251,2.251,0,0,0-.071,1.313,15.042,15.042,0,0,0,.589,2.508,35.284,35.284,0,0,0,2.526,5.921,5.619,5.619,0,0,1,1.939-.368,4.375,4.375,0,0,1,3.961,2.547,3.683,3.683,0,0,1,.373,2,6.589,6.589,0,0,1-.467,1.921,9.485,9.485,0,0,1-.775,1.53,6.742,6.742,0,0,1-.4.577,46.01,46.01,0,0,0,3.88,4.935,18.869,18.869,0,0,0,2.009,1.944C-1964.965,6732.371-1964.615,6732.421-1964.527,6732.421Z" transform="translate(-72.636 0)" fill="#002e76"/>
    </g>
    <path id="Path_24526" data-name="Path 24526" d="M3.371,0H2.307V-5.137L.738-4.6v-.9l2.5-.918h.136Z" transform="translate(-1803.08 6706)" fill="#2183e5"/>
    <path id="Path_24517" data-name="Path 24517" d="M-1751.5,6663.51l.534-4.175" transform="translate(-62.08 -2.867)" fill="none" stroke="#2183e5" stroke-linecap="round" stroke-width="1"/>
    <path id="Path_24518" data-name="Path 24518" d="M-1751.5,6662.133l3.78-2.8" transform="translate(-57.633 5.679)" fill="none" stroke="#2183e5" stroke-linecap="round" stroke-width="1"/>
    <path id="Path_24519" data-name="Path 24519" d="M-1751.5,6659.331l2.3.089" transform="matrix(1, 0.017, -0.017, 1, 62.101, 47.297)" fill="none" stroke="#2183e5" stroke-linecap="round" stroke-width="1"/>
  </g>
</svg>
