<svg id="Layer_1" data-name="Layer 1" xmlns="http://www.w3.org/2000/svg" viewBox="0 0 30 30"><defs><style>.cls-1{fill:#f6f7fb;}.cls-2{fill:#2a3a8d;}.cls-3{fill:#fff;}.cls-4{fill:#076bcf;}</style></defs><rect class="cls-1" x="0.64" y="0.58" width="27.07" height="27.07"/><path class="cls-2" d="M28.05,28H.29V.24H28.05ZM1,27.31H27.36V.92H1Z"/><rect class="cls-1" x="3.51" y="3.45" width="21.32" height="21.32"/><path class="cls-2" d="M25.17,25.12h-22v-22h22ZM3.85,24.43H24.49V3.79H3.85Z"/><circle class="cls-3" cx="26.2" cy="13.87" r="3.17"/><path class="cls-2" d="M26.2,17.38a3.51,3.51,0,1,1,3.51-3.51A3.51,3.51,0,0,1,26.2,17.38Zm0-6.34A2.83,2.83,0,1,0,29,13.87,2.83,2.83,0,0,0,26.2,11Z"/><circle class="cls-4" cx="26.2" cy="13.87" r="1.51"/><path class="cls-4" d="M26.2,15.45a1.58,1.58,0,1,1,1.57-1.58A1.58,1.58,0,0,1,26.2,15.45Zm0-3a1.44,1.44,0,1,0,1.44,1.44A1.44,1.44,0,0,0,26.2,12.43Z"/><path class="cls-2" d="M7.73,29.76H2.79V27.31H7.73Zm-4.26-.68H7.05V28H3.47Z"/><path class="cls-2" d="M25.55,29.76H20.61V27.31h4.94Zm-4.26-.68h3.58V28H21.29Z"/><rect class="cls-2" x="1.73" y="-0.02" width="0.68" height="4.07" transform="translate(-0.82 2.06) rotate(-45)"/><rect class="cls-2" x="24.17" y="1.67" width="4.07" height="0.68" transform="translate(6.25 19.12) rotate(-45)"/><rect class="cls-2" x="25.86" y="24.18" width="0.68" height="4.07" transform="translate(-10.86 26.21) rotate(-45)"/><rect class="cls-2" x="0.04" y="25.87" width="4.06" height="0.68" transform="translate(-17.93 9.14) rotate(-45)"/><path class="cls-4" d="M13.2,10.26h-.59a1.7,1.7,0,0,0-.47-.92h1a.34.34,0,0,0,.27-.18.47.47,0,0,0,0-.17.31.31,0,0,0-.2-.28.18.18,0,0,0-.13,0H9.61a.34.34,0,0,0-.26.15.29.29,0,0,0,0,.2.34.34,0,0,0,.33.31h1a1.48,1.48,0,0,1,1.3.91H9.61a.34.34,0,0,0-.32.33.33.33,0,0,0,.33.33h2.32a1,1,0,0,1-.53.61,3,3,0,0,1-1.32.27.74.74,0,0,0-.41.06h0a.35.35,0,0,0-.12.23.33.33,0,0,0,.08.25l0,0,2.51,2.16a.36.36,0,0,0,.2.06h.09a.34.34,0,0,0,.17-.11.35.35,0,0,0,.06-.28.4.4,0,0,0-.1-.18l-1.87-1.6a2.81,2.81,0,0,0,1.32-.5,1.64,1.64,0,0,0,.59-1h.55a.36.36,0,0,0,.28-.18.51.51,0,0,0,0-.17A.33.33,0,0,0,13.2,10.26Z"/><path class="cls-4" d="M11.4,17.39a6,6,0,0,1-5-2.63A6,6,0,0,1,12.5,5.42a6,6,0,0,1,4.82,7,6,6,0,0,1-5.92,4.93ZM11.38,6a5.37,5.37,0,0,0-5.25,4.37,5.37,5.37,0,0,0,.84,4,5.35,5.35,0,1,0,5.4-8.29A5.52,5.52,0,0,0,11.38,6Z"/><rect class="cls-4" x="15.64" y="15.28" width="0.68" height="2.32" transform="translate(-6.89 14.82) rotate(-41.76)"/><path class="cls-4" d="M21.06,22.69a.86.86,0,0,1-.62-.27l-4.51-4.77a.86.86,0,1,1,1.26-1.18l4.5,4.77a.86.86,0,0,1,0,1.22A.81.81,0,0,1,21.06,22.69Z"/></svg>