<svg xmlns="http://www.w3.org/2000/svg" width="82" height="82" viewBox="0 0 82 82">
  <defs>
    <style>
      .cls-1 {
        fill: #f6f7fb;
      }

      .cls-1, .cls-4, .cls-5 {
        stroke: #2a3a8d;
      }

      .cls-1, .cls-4 {
        stroke-width: 1.5px;
      }

      .cls-2 {
        opacity: 0;
      }

      .cls-3, .cls-6, .cls-9 {
        fill: none;
      }

      .cls-3 {
        stroke: #e2e2e2;
      }

      .cls-4 {
        fill: #f5f5f5;
      }

      .cls-5 {
        fill: #2a3a8d;
        stroke-width: 0.3px;
        fill-rule: evenodd;
      }

      .cls-6 {
        stroke: #0875e2;
        stroke-linecap: round;
        stroke-width: 4px;
      }

      .cls-7 {
        fill: #0875e2;
      }

      .cls-8 {
        stroke: none;
      }
    </style>
  </defs>
  <g id="Group_21064" data-name="Group 21064" transform="translate(-1160 -821)">
    <g id="Group_20401" data-name="Group 20401">
      <path id="Path_20100" data-name="Path 20100" class="cls-1" d="M25.726.224A26.483,26.483,0,1,1-.758,26.708,26.483,26.483,0,0,1,25.726.224Z" transform="translate(1171.44 833.639)"/>
      <g id="Group_20400" data-name="Group 20400" class="cls-2" transform="translate(528 522)">
        <g id="Group_14723" data-name="Group 14723" transform="translate(632 299)">
          <g id="Rectangle_3860" data-name="Rectangle 3860" class="cls-3">
            <rect class="cls-8" width="82" height="82"/>
            <rect class="cls-9" x="0.5" y="0.5" width="81" height="81"/>
          </g>
        </g>
      </g>
    </g>
    <g id="Group_20406" data-name="Group 20406" transform="translate(1206.77 858.862)">
      <path id="Path_20101" data-name="Path 20101" class="cls-4" d="M51.335,7.033c2.459-2.065,4.1-6.718,3.09-6.922-1.343-.271-4.261.916-5.671,1.125-2,.241-4.178-2.169-5.4-.825-.994,1.092.713,5.064,3.383,6.795-7.967,3.915-19.164,23.571.371,25C74.138,34.176,60.6,10.848,51.335,7.033Z" transform="translate(-36.238 0)"/>
      <path id="Path_20102" data-name="Path 20102" class="cls-5" d="M550.951,135.108l-.006.048a3.389,3.389,0,0,1-1.232,2.132,5.982,5.982,0,0,1-3.11,1.084l-.025,0,4.314,3.7a.7.7,0,0,1,.182.3.607.607,0,0,1-.1.477.674.674,0,0,1-.292.2.6.6,0,0,1-.5-.1l-.019-.014-5.4-4.632a.46.46,0,0,1-.05-.053.593.593,0,0,1,.107-.851,1.466,1.466,0,0,1,.779-.1,6.7,6.7,0,0,0,2.945-.6,2.324,2.324,0,0,0,1.255-1.575l0-.019h-5.187a.566.566,0,0,1-.034-1.131l.034,0h5.183a3.372,3.372,0,0,0-3.029-2.264l-.036,0h-2.118a.587.587,0,0,1-.565-.533.659.659,0,0,1,.092-.347.6.6,0,0,1,.445-.253l.028,0h7.63c.054,0,0-.048.219.045a.588.588,0,0,1,.346.488.748.748,0,0,1-.062.3.587.587,0,0,1-.47.3l-.033,0h-2.575a3.628,3.628,0,0,1,1.281,2.259v.009h1.292l.087.008a.578.578,0,0,1,.478.526.743.743,0,0,1-.062.3.587.587,0,0,1-.47.3l-.033,0Z" transform="translate(-535.601 -115.824)"/>
    </g>
    <g id="Group_20405" data-name="Group 20405" transform="translate(1193.375 845.469)">
      <path id="Path_20103" data-name="Path 20103" class="cls-6" d="M-.485,1.666V18.778" transform="translate(4.017 11.166)"/>
      <path id="Path_20104" data-name="Path 20104" class="cls-7" d="M1.746-.541a3.5,3.5,0,1,1-3.5,3.5A3.5,3.5,0,0,1,1.746-.541Z" transform="translate(1.625 1.531)"/>
    </g>
  </g>
</svg>
