<svg id="Group_158" data-name="Group 158" xmlns="http://www.w3.org/2000/svg" width="56" height="56" viewBox="0 0 56 56">
  <g id="Group_21740" data-name="Group 21740">
    <path id="Path_490" data-name="Path 490" d="M905.1,1917.5a14,14,0,0,1,14-14h28a14,14,0,0,1,14,14v28a14,14,0,0,1-14,14h-28a14,14,0,0,1-14-14Z" transform="translate(-905.098 -1903.5)" fill="#1a63fc"/>
    <path id="Path_491" data-name="Path 491" d="M931.932,1928h2.333v-2.33h-2.333m1.166,15.17a9.335,9.335,0,1,1,9.334-9.34A9.348,9.348,0,0,1,933.1,1940.84Zm0-21a11.662,11.662,0,0,0-8.249,19.91,11.667,11.667,0,0,0,16.5-16.5,11.61,11.61,0,0,0-8.25-3.41Zm-1.166,17.5h2.333v-7h-2.333Z" transform="translate(-905.098 -1903.5)" fill="#fff"/>
  </g>
</svg>
