<svg xmlns="http://www.w3.org/2000/svg" xmlns:xlink="http://www.w3.org/1999/xlink" width="82" height="82" viewBox="0 0 82 82">
  <defs>
    <clipPath id="clip-path">
      <path id="Path_23945" data-name="Path 23945" d="M185.124,205.862A2.177,2.177,0,0,0,188,206.941l5.831-5.888,10.476-2.589,6.9,4.745,3.535,6.9L213.6,220.432l-6.618,5.6-8.312.72-5.925-2.922-3.676-4.345-.973-3.377-4.176.645,3.549,9.279,9.512,5.787H209.01l8.3-5.787,6.1-11.2-3.4-11.046-6.416-8.638-13.86-2.1-13.971,5.11S184.028,203.923,185.124,205.862Z" fill="none"/>
    </clipPath>
  </defs>
  <g id="Group_30491" data-name="Group 30491" transform="translate(-1339 -915)">
    <g id="Group_30490" data-name="Group 30490">
      <g id="Group_30489" data-name="Group 30489" transform="translate(1177.548 729.626)">
        <g id="Component_397_1" data-name="Component 397 1">
          <g id="Component_94_1" data-name="Component 94 1">
            <g id="Group_23149" data-name="Group 23149">
              <g id="Group_23010" data-name="Group 23010">
                <g id="Group_22992" data-name="Group 22992">
                  <g id="Group_21850" data-name="Group 21850">
                    <g id="Group_21849" data-name="Group 21849">
                      <g id="Group_21842" data-name="Group 21842">
                        <g id="Group_20355" data-name="Group 20355" opacity="0">
                          <g id="Group_14723" data-name="Group 14723">
                            <g id="Rectangle_3860" data-name="Rectangle 3860">
                              <rect id="Rectangle_5422" data-name="Rectangle 5422" width="82" height="82" transform="translate(161.452 185.374)" fill="none"/>
                              <rect id="Rectangle_5423" data-name="Rectangle 5423" width="81" height="81" transform="translate(161.952 185.874)" fill="none" stroke="#e2e2e2" stroke-width="1"/>
                            </g>
                          </g>
                          <g id="Ellipse_681" data-name="Ellipse 681" opacity="0">
                            <circle id="Ellipse_1121" data-name="Ellipse 1121" cx="25" cy="25" r="25" transform="translate(177.452 201.374)" fill="none"/>
                            <circle id="Ellipse_1122" data-name="Ellipse 1122" cx="24.5" cy="24.5" r="24.5" transform="translate(177.952 201.874)" fill="none" stroke="#00e2ff" stroke-width="1"/>
                          </g>
                        </g>
                      </g>
                    </g>
                  </g>
                </g>
              </g>
            </g>
          </g>
          <g id="Group_30360" data-name="Group 30360">
            <g id="Group_30359" data-name="Group 30359">
              <g id="Group_30356" data-name="Group 30356">
                <g id="Group_30355" data-name="Group 30355">
                  <g id="Rectangle_5346" data-name="Rectangle 5346">
                    <rect id="Rectangle_5424" data-name="Rectangle 5424" width="14" height="29" transform="translate(166.452 229.374)" fill="none"/>
                    <rect id="Rectangle_5425" data-name="Rectangle 5425" width="12.5" height="27.5" transform="translate(167.202 230.124)" fill="none" stroke="#002e76" stroke-linecap="round" stroke-linejoin="round" stroke-width="1.5"/>
                  </g>
                  <path id="Path_22797" data-name="Path 22797" d="M181.1,236.118l10.2-2.552,21.755,5.627s4.356,1.649,3.554,5.254-5.455,3.264-5.455,3.264l-13.309-1.469" fill="none" stroke="#002e76" stroke-linecap="round" stroke-linejoin="round" stroke-width="1.5"/>
                  <path id="Path_22798" data-name="Path 22798" d="M206.848,237.641l9.161-4.825s2.741-1.555,5.975,1.138" fill="none" stroke="#002e76" stroke-linecap="round" stroke-linejoin="round" stroke-width="1.5"/>
                  <path id="Path_22799" data-name="Path 22799" d="M216.286,237.641l9.161-4.825s2.741-1.555,5.975,1.138" fill="none" stroke="#002e76" stroke-linecap="round" stroke-linejoin="round" stroke-width="1.5"/>
                  <path id="Path_22800" data-name="Path 22800" d="M221,239.951l8.85-4.979s5.083-3.107,7.49.409-2.979,6.457-2.979,6.457l-26.279,15.4-26.874-4.727" fill="none" stroke="#002e76" stroke-linecap="round" stroke-linejoin="round" stroke-width="1.5"/>
                </g>
              </g>
              <g id="Group_30358" data-name="Group 30358">
                <g id="Group_30357" data-name="Group 30357">
                  <g id="Group_14716" data-name="Group 14716">
                    <g id="Group_14632" data-name="Group 14632">
                      <path id="Path_10767" data-name="Path 10767" d="M184.141,216.746h0a18.034,18.034,0,0,0,15.8,14.261,18.06,18.06,0,0,1-15.8-14.261Z" fill="none"/>
                      <path id="Path_10768" data-name="Path 10768" d="M201.786,195.053a18.044,18.044,0,0,1,18.022,18.023h0a18.013,18.013,0,0,0-35-6.011h0a18.037,18.037,0,0,1,16.978-12.012Z" fill="none"/>
                      <path id="Path_10769" data-name="Path 10769" d="M183.763,213.076Z" fill="#0875e2"/>
                      <g id="Group_30488" data-name="Group 30488">
                        <g id="Group_30487" data-name="Group 30487" clip-path="url(#clip-path)">
                          <g id="Mask_Group_158" data-name="Mask Group 158">
                            <g id="Ellipse_1113" data-name="Ellipse 1113">
                              <circle id="Ellipse_1123" data-name="Ellipse 1123" cx="17.5" cy="17.5" r="17.5" transform="translate(184.452 195.367)" fill="#fff"/>
                              <circle id="Ellipse_1124" data-name="Ellipse 1124" cx="16.75" cy="16.75" r="16.75" transform="translate(185.202 196.117)" fill="none" stroke="#2a3a8d" stroke-width="1.5"/>
                            </g>
                          </g>
                        </g>
                      </g>
                    </g>
                  </g>
                </g>
                <path id="Path_22801" data-name="Path 22801" d="M197.767,206.267l2.038-.843.6-3.124h2.79l.607,3.115,2.464,1.011,2.647-1.8,1.977,1.9-1.977,2.814.9,2.254,3.386.722v2.513l-3.218.833-.96,2.149,1.71,2.718-1.817,2-2.647-1.741-2.464.843-.607,3.2h-2.79l-.6-3.2-2.038-.843-2.982,1.741-2-2,2-2.718-1.116-2.364-3.389-.618.053-2.673,3.5-.841.957-1.975-2-3.08,2-2.023Z" fill="none" stroke="#076bcf" stroke-linecap="round" stroke-width="1.5"/>
                <g id="Ellipse_1112" data-name="Ellipse 1112">
                  <circle id="Ellipse_1125" data-name="Ellipse 1125" cx="6.25" cy="6.25" r="6.25" transform="translate(195.452 207.367)" fill="#fff"/>
                  <circle id="Ellipse_1126" data-name="Ellipse 1126" cx="5.5" cy="5.5" r="5.5" transform="translate(196.202 208.117)" fill="none" stroke="#076bcf" stroke-width="1.5"/>
                </g>
              </g>
            </g>
          </g>
          <path id="Path_22803" data-name="Path 22803" d="M184.858,216.61a.736.736,0,0,1,.6-.811.769.769,0,0,1,.878.588" fill="#2a3a8d"/>
          <path id="Path_22804" data-name="Path 22804" d="M185.652,206.519a.7.7,0,0,0,.407.9.782.782,0,0,0,.978-.3l-.614-.277" fill="#2a3a8d"/>
          <circle id="Ellipse_1114" data-name="Ellipse 1114" cx="0.75" cy="0.75" r="0.75" transform="translate(184.452 211.367)" fill="#2a3a8d"/>
        </g>
        <g id="Group_19511" data-name="Group 19511">
          <g id="Path_18117-2" data-name="Path 18117-2">
            <path id="Path_23946" data-name="Path 23946" d="M222.319,210.666a9.285,9.285,0,1,1,9.285-9.285,9.285,9.285,0,0,1-9.285,9.285Z" fill="#f6f7fb"/>
            <path id="Path_23947" data-name="Path 23947" d="M222.319,192.846a8.535,8.535,0,1,0,8.535,8.535,8.535,8.535,0,0,0-8.535-8.535m0-1.5a10.035,10.035,0,1,1-10.035,10.035,10.035,10.035,0,0,1,10.035-10.035Z" fill="#2a3a8d"/>
          </g>
          <path id="Path_17991-2" data-name="Path 17991-2" d="M217.032,201.394l3.255,3.59,6.992-6.7" fill="none" stroke="#2a3a8d" stroke-linecap="round" stroke-linejoin="round" stroke-width="1.5"/>
        </g>
      </g>
    </g>
  </g>
</svg>
