<svg xmlns="http://www.w3.org/2000/svg" width="15.072" height="18.506" viewBox="0 0 15.072 18.506">
  <g id="Group_21783" data-name="Group 21783" transform="translate(-922.217 -4530.673)">
    <path id="Path_571" data-name="Path 571" d="M1008.614,4531.34h-7.73a1.718,1.718,0,0,0-1.719,1.714V4546.8a1.717,1.717,0,0,0,1.719,1.713h10.306a1.715,1.715,0,0,0,1.714-1.713v-11.17Z" transform="translate(-76.283)" fill="none" stroke="#0a0a0a" stroke-linecap="round" stroke-linejoin="round" stroke-width="1.333"/>
    <path id="Path_572" data-name="Path 572" d="M1005.83,4531.34v3.427a1.715,1.715,0,0,0,1.726,1.727h3.427" transform="translate(-74.527)" fill="none" stroke="#0a0a0a" stroke-linecap="round" stroke-linejoin="round" stroke-width="1.333"/>
    <path id="Path_573" data-name="Path 573" d="M1001.83,4538.66h1.726" transform="translate(-75.049 2.11)" fill="none" stroke="#0a0a0a" stroke-linecap="round" stroke-linejoin="round" stroke-width="1.333"/>
    <path id="Path_574" data-name="Path 574" d="M1005.83,4538.66h1.726" transform="translate(-74.314 2.11)" fill="none" stroke="#0a0a0a" stroke-linecap="round" stroke-linejoin="round" stroke-width="1.333"/>
    <path id="Path_575" data-name="Path 575" d="M1001.83,4541.34h1.726" transform="translate(-75.049 2.883)" fill="none" stroke="#0a0a0a" stroke-linecap="round" stroke-linejoin="round" stroke-width="1.333"/>
    <path id="Path_576" data-name="Path 576" d="M1005.83,4541.34h1.726" transform="translate(-74.314 2.883)" fill="none" stroke="#0a0a0a" stroke-linecap="round" stroke-linejoin="round" stroke-width="1.333"/>
  </g>
</svg>
