<svg xmlns="http://www.w3.org/2000/svg" width="40" height="40" viewBox="0 0 40 40">
  <g id="Group_33438" data-name="Group 33438" transform="translate(-391 -323)">
    <g id="Group_33437" data-name="Group 33437">
      <g id="Group_33436" data-name="Group 33436">
        <path id="Path_1009" data-name="Path 1009" d="M391,333a10,10,0,0,1,10-10h20a10,10,0,0,1,10,10v20a10,10,0,0,1-10,10H401a10,10,0,0,1-10-10Z" fill="#ffff42"/>
      </g>
      <g id="Group_33439" data-name="Group 33439">
        <path id="Path_1010" data-name="Path 1010" d="M414.332,343.832l4.353,2.9a.4.4,0,0,0,.21.069.417.417,0,0,0,.217-.048.425.425,0,0,0,.161-.154.41.41,0,0,0,.059-.214v-6.83a.411.411,0,0,0-.056-.208.423.423,0,0,0-.153-.153.406.406,0,0,0-.209-.055.417.417,0,0,0-.209.056l-4.373,2.552" fill="none" stroke="#000" stroke-linecap="round" stroke-linejoin="round" stroke-width="1.667"/>
        <path id="Path_1011" data-name="Path 1011" d="M412.668,338h-8.333a1.667,1.667,0,0,0-1.667,1.667v6.666A1.667,1.667,0,0,0,404.335,348h8.333a1.667,1.667,0,0,0,1.667-1.667v-6.666A1.667,1.667,0,0,0,412.668,338Z" fill="none" stroke="#000" stroke-linecap="round" stroke-linejoin="round" stroke-width="1.667"/>
      </g>
    </g>
  </g>
</svg>
