<svg id="Group_167" data-name="Group 167" xmlns="http://www.w3.org/2000/svg" width="56" height="56" viewBox="0 0 56 56">
  <g id="Group_21753" data-name="Group 21753">
    <path id="Path_534" data-name="Path 534" d="M905.1,2242a14,14,0,0,1,14-14h28a14,14,0,0,1,14,14v28a14,14,0,0,1-14,14h-28a14,14,0,0,1-14-14Z" transform="translate(-905.098 -2228)" fill="#ffff42"/>
    <path id="Path_535" data-name="Path 535" d="M943.6,2259.5v4.67a2.335,2.335,0,0,1-.684,1.65,2.362,2.362,0,0,1-1.65.68H924.931a2.363,2.363,0,0,1-1.65-.68,2.334,2.334,0,0,1-.683-1.65v-4.67" transform="translate(-905.098 -2228)" fill="none" stroke="#171717" stroke-linecap="round" stroke-linejoin="round" stroke-width="2.333"/>
    <path id="Path_536" data-name="Path 536" d="M927.264,2253.66l5.833,5.84,5.833-5.84" transform="translate(-905.098 -2228)" fill="none" stroke="#171717" stroke-linecap="round" stroke-linejoin="round" stroke-width="2.333"/>
    <path id="Path_537" data-name="Path 537" d="M933.1,2259.5v-14" transform="translate(-905.098 -2228)" fill="none" stroke="#171717" stroke-linecap="round" stroke-linejoin="round" stroke-width="2.333"/>
  </g>
</svg>
