<svg id="Group_151" data-name="Group 151" xmlns="http://www.w3.org/2000/svg" width="56" height="56" viewBox="0 0 56 56">
  <g id="Group_21732" data-name="Group 21732">
    <path id="Path_464" data-name="Path 464" d="M405.895,1764a14,14,0,0,1,14-14h28a14,14,0,0,1,14,14v28a14,14,0,0,1-14,14h-28a14,14,0,0,1-14-14Z" transform="translate(-405.895 -1750)" fill="#ffff42"/>
    <g id="Group_22112" data-name="Group 22112">
      <path id="Path_465" data-name="Path 465" d="M433.26,1770.03a1.872,1.872,0,0,1,.743-.1,1.83,1.83,0,0,1,.726.19l12.133,6.07.226.13a1.83,1.83,0,0,1,.592.67,1.857,1.857,0,0,1,.215.86v14.36a1.873,1.873,0,0,1-1.867,1.87H421.761a1.871,1.871,0,0,1-1.866-1.87v-14.35a1.834,1.834,0,0,1,.279-.98,1.8,1.8,0,0,1,.753-.69l12.133-6.07Zm1.027,15.09a.9.9,0,0,1-.784,0l-5.871-3.1-5.871-3.09v13.28h24.267v-13.28Zm-11.723-7.67,5.665,2.99,5.666,2.98,11.326-5.97-11.326-5.66Z" transform="translate(-405.895 -1750)" fill="#171717"/>
      <path id="Path_466" data-name="Path 466" d="M433.895,1761.92l.117.01a1.072,1.072,0,0,1,.59.28,1.022,1.022,0,0,1,.286.59l.007.12v4l.005.15a1.962,1.962,0,0,0,.577,1.26,2.013,2.013,0,0,0,1.261.59h4.157l.117.01a1.072,1.072,0,0,1,.59.28,1.022,1.022,0,0,1,.286.59l.007.12v9a3.007,3.007,0,0,1-2.824,3H428.895a3,3,0,0,1-2.995-2.82l-.005-.18v-14a2.987,2.987,0,0,1,2.824-2.99l.176-.01Z" transform="translate(-405.895 -1750)" fill="#171717"/>
      <path id="Path_467" data-name="Path 467" d="M440.894,1766.92h-4v-4Z" transform="translate(-405.895 -1750)" fill="#171717"/>
      <text id="ITR" transform="translate(24.474 26.33)" fill="#fff" font-size="4.455" font-family="Helvetica" font-weight="700" letter-spacing="-0.011em"><tspan x="0" y="0">ITR</tspan></text>
    </g>
  </g>
</svg>
