<svg xmlns="http://www.w3.org/2000/svg" width="40" height="40" viewBox="0 0 40 40">
  <g id="Group_172" data-name="Group 172" transform="translate(-756.449 -352.5)">
    <path id="Path_507" data-name="Path 507" d="M756.449,362.5a10,10,0,0,1,10-10h20a10,10,0,0,1,10,10v20a10,10,0,0,1-10,10h-20a10,10,0,0,1-10-10Z" fill="#2a3a8d"/>
    <g id="Group_171" data-name="Group 171">
      <path id="Path_508" data-name="Path 508" d="M776.449,376.667h.009" fill="none" stroke="#fff" stroke-linecap="round" stroke-linejoin="round" stroke-width="1.667"/>
      <path id="Path_509" data-name="Path 509" d="M778.948,364.167h-7.5a1.666,1.666,0,0,0-1.667,1.667v13.333a1.666,1.666,0,0,0,1.667,1.667h10a1.668,1.668,0,0,0,1.667-1.667V368.334Z" fill="none" stroke="#fff" stroke-linecap="round" stroke-linejoin="round" stroke-width="1.667"/>
      <path id="Path_510" data-name="Path 510" d="M774.031,370a2.5,2.5,0,0,1,4.85.833c0,1.667-2.5,2.5-2.5,2.5" fill="none" stroke="#fff" stroke-linecap="round" stroke-linejoin="round" stroke-width="1.667"/>
    </g>
  </g>
</svg>
