<svg xmlns="http://www.w3.org/2000/svg" id="first_page-24px" width="24" height="24" viewBox="0 0 24 24">
    <defs>
        <style>
            .cls-1{fill:none;opacity:.87}.cls-2{fill:rgba(0,0,0,.38)}
        </style>
    </defs>
    <path id="Path_18036" d="M24 0v24H0V0z" class="cls-1" data-name="Path 18036"/>
    <path id="Path_18037" d="M17.7 15.89L13.82 12l3.89-3.89A1 1 0 0 0 16.3 6.7l-4.59 4.59a1 1 0 0 0 0 1.41l4.59 4.59a.99.99 0 1 0 1.4-1.4zM7 6a1 1 0 0 1 1 1v10a1 1 0 0 1-2 0V7a1 1 0 0 1 1-1z" class="cls-2" data-name="Path 18037"/>
</svg>
