<svg id="Group_157" data-name="Group 157" xmlns="http://www.w3.org/2000/svg" xmlns:xlink="http://www.w3.org/1999/xlink" width="56" height="56" viewBox="0 0 56 56">
  <defs>
    <clipPath id="clip-path">
      <rect id="Rectangle_62" data-name="Rectangle 62" width="28" height="28" fill="#171717"/>
    </clipPath>
  </defs>
  <g id="Group_21739" data-name="Group 21739">
    <path id="Path_487" data-name="Path 487" d="M655.5,1917.5a14,14,0,0,1,14-14h28a14,14,0,0,1,14,14v28a14,14,0,0,1-14,14h-28a14,14,0,0,1-14-14Z" transform="translate(-655.496 -1903.5)" fill="#ffff42"/>
    <g id="Group_156" data-name="Group 156" transform="translate(14 14)" clip-path="url(#clip-path)">
      <path id="Path_488" data-name="Path 488" d="M692.829,1943.27l2.859,1.74-.759-3.28,2.567-2.19-3.372-.29-1.3-3.08-1.318,3.08-3.348.29,2.543,2.19-.793,3.28Zm-6.906-1.27H671.829a2.425,2.425,0,0,1-2.333-2.33v-16.34a2.421,2.421,0,0,1,2.333-2.33h23.334a2.421,2.421,0,0,1,2.333,2.33v12.29a6.915,6.915,0,0,0-2.333-1.39v-10.9H671.829v16.34h14.094a7.266,7.266,0,0,0,0,2.33Zm-.094-4.67H674.163v-1.46c0-1.93,3.9-2.91,5.833-2.91s5.833.98,5.833,2.91Zm0-7H690.5v1.17h-4.667ZM680,1925.67a2.915,2.915,0,1,0,2.917,2.91A2.926,2.926,0,0,0,680,1925.67Zm5.833,2.33h7v1.17h-7Zm0-2.33h7v1.16h-7Z" transform="translate(-669.496 -1917.5)" fill="#171717"/>
    </g>
  </g>
</svg>
