<svg id="Group_152" data-name="Group 152" xmlns="http://www.w3.org/2000/svg" width="56" height="56" viewBox="0 0 56 56">
  <g id="Group_21733" data-name="Group 21733">
    <path id="Path_469" data-name="Path 469" d="M655.5,1764a14,14,0,0,1,14-14h28a14,14,0,0,1,14,14v28a14,14,0,0,1-14,14h-28a14,14,0,0,1-14-14Z" transform="translate(-655.496 -1750)" fill="#ffff42"/>
    <path id="Path_470" data-name="Path 470" d="M688.163,1788.5v-2.33a4.671,4.671,0,0,0-4.666-4.67h-7a4.672,4.672,0,0,0-4.667,4.67v2.33" transform="translate(-655.496 -1750)" fill="none" stroke="#171717" stroke-linecap="round" stroke-linejoin="round" stroke-width="2.333"/>
    <path id="Path_471" data-name="Path 471" d="M680,1776.83a4.665,4.665,0,1,0-4.667-4.66A4.665,4.665,0,0,0,680,1776.83Z" transform="translate(-655.496 -1750)" fill="none" stroke="#171717" stroke-linecap="round" stroke-linejoin="round" stroke-width="2.333"/>
    <path id="Path_472" data-name="Path 472" d="M688.162,1776.83l2.333,2.34,4.667-4.67" transform="translate(-655.496 -1750)" fill="none" stroke="#171717" stroke-linecap="round" stroke-linejoin="round" stroke-width="2.333"/>
  </g>
</svg>
