<svg xmlns="http://www.w3.org/2000/svg" id="_24px-3" width="24" height="24" data-name="24px-3" viewBox="0 0 24 24">
    <defs>
        <style>
            .cls-1{fill:none}.cls-2{fill:rgba(0,0,0,.6)}
        </style>
    </defs>
    <path id="Path_16727" d="M0 0h24v24H0z" class="cls-1" data-name="Path 16727"/>
    <path id="Path_16728" d="M4 18h16a1 1 0 0 0 0-2H4a1 1 0 0 0 0 2zm0-5h16a1 1 0 0 0 0-2H4a1 1 0 0 0 0 2zM3 7a1 1 0 0 0 1 1h16a1 1 0 0 0 0-2H4a1 1 0 0 0-1 1z" class="cls-2" data-name="Path 16728"/>
</svg>
