<svg xmlns="http://www.w3.org/2000/svg" width="64.763" height="64.763" viewBox="0 0 64.763 64.763">
  <g id="Group_33504" data-name="Group 33504" transform="translate(-535.665 -4174.146)">
    <g id="Group_33499" data-name="Group 33499" transform="translate(-417.153 2901.351) rotate(-13)">
      <path id="Path_686" data-name="Path 686" d="M686.337,1512.777a9.936,9.936,0,0,1-12.021,7.281l-27.4-6.721a9.939,9.939,0,0,1-7.284-12.02l6.723-27.395a9.939,9.939,0,0,1,12.021-7.286l27.4,6.721a9.943,9.943,0,0,1,7.283,12.026Z" transform="translate(0 0)" fill="#2a3a8d"/>
    </g>
    <g id="Group_104" data-name="Group 104" transform="translate(-115.638 -777.152)">
      <path id="Path_289" data-name="Path 289" d="M689.812,4971.68a2.829,2.829,0,0,0-1.972.784,2.6,2.6,0,0,0-.817,1.884v8a2.615,2.615,0,0,0,.817,1.884,2.862,2.862,0,0,0,1.972.775,1.434,1.434,0,0,1,.986.392,1.309,1.309,0,0,1,.409.947v1.329a2.638,2.638,0,0,1-.817,1.894,2.862,2.862,0,0,1-1.972.774,1.434,1.434,0,0,0-.986.392,1.309,1.309,0,0,0-.409.947v2.668a1.289,1.289,0,0,0,.409.937,1.434,1.434,0,0,0,.986.392,8.561,8.561,0,0,0,5.916-2.342,7.836,7.836,0,0,0,2.451-5.661v-13.329a2.6,2.6,0,0,0-.817-1.884,2.829,2.829,0,0,0-1.972-.784Z" transform="translate(-1.101)" fill="none" stroke="#fff" stroke-linecap="round" stroke-linejoin="round" stroke-width="2.789"/>
      <path id="Path_290" data-name="Path 290" d="M674.473,4971.68a2.829,2.829,0,0,0-1.973.784,2.6,2.6,0,0,0-.816,1.884v8a2.614,2.614,0,0,0,.816,1.884,2.863,2.863,0,0,0,1.973.775,1.438,1.438,0,0,1,.986.392,1.312,1.312,0,0,1,.408.947v1.329a2.638,2.638,0,0,1-.817,1.894,2.862,2.862,0,0,1-1.972.774,1.436,1.436,0,0,0-.986.392,1.312,1.312,0,0,0-.408.947v2.668a1.292,1.292,0,0,0,.408.937,1.436,1.436,0,0,0,.986.392,8.561,8.561,0,0,0,5.916-2.342,7.836,7.836,0,0,0,2.451-5.661v-13.329a2.6,2.6,0,0,0-.817-1.884,2.827,2.827,0,0,0-1.972-.784Z" fill="none" stroke="#fff" stroke-linecap="round" stroke-linejoin="round" stroke-width="2.789"/>
    </g>
  </g>
</svg>
