<svg id="Group_169" data-name="Group 169" xmlns="http://www.w3.org/2000/svg" width="56" height="56" viewBox="0 0 56 56">
  <g id="Group_21744" data-name="Group 21744">
    <path id="Path_545" data-name="Path 545" d="M155.8,2088a14,14,0,0,1,14-14h28a14,14,0,0,1,14,14v28a14,14,0,0,1-14,14h-28a14,14,0,0,1-14-14Z" transform="translate(-155.801 -2074)" fill="#ffff42"/>
    <g id="Group_21743" data-name="Group 21743" transform="translate(17.5 17.5)">
      <path id="Path_546" data-name="Path 546" d="M194.3,2105.5v4.67a2.335,2.335,0,0,1-.684,1.65,2.362,2.362,0,0,1-1.65.68H175.634a2.363,2.363,0,0,1-1.65-.68,2.338,2.338,0,0,1-.683-1.65v-4.67" transform="translate(-173.301 -2091.5)" fill="none" stroke="#171717" stroke-linecap="round" stroke-linejoin="round" stroke-width="2.333"/>
      <path id="Path_547" data-name="Path 547" d="M177.967,2099.66l5.833,5.84,5.833-5.84" transform="translate(-173.301 -2091.5)" fill="none" stroke="#171717" stroke-linecap="round" stroke-linejoin="round" stroke-width="2.333"/>
      <path id="Path_548" data-name="Path 548" d="M183.8,2105.5v-14" transform="translate(-173.301 -2091.5)" fill="none" stroke="#171717" stroke-linecap="round" stroke-linejoin="round" stroke-width="2.333"/>
    </g>
  </g>
</svg>
