<svg xmlns="http://www.w3.org/2000/svg" width="18" height="18" viewBox="0 0 18 18">
    <defs>
        <style>
            .cls-1{fill:none}.cls-2{clip-path:url(#clip-path)}.cls-3{fill:rgba(0,0,0,.6)}
        </style>
        <clipPath id="clip-path">
            <path id="Rectangle_7" d="M0 0h18v18H0z" class="cls-1" data-name="Rectangle 7"/>
        </clipPath>
    </defs>
    <g id="round-language-24px" class="cls-2">
        <path id="Path_4" d="M0 0h18v18H0z" class="cls-1" data-name="Path 4"/>
        <path id="Path_5" d="M8.993 2a7 7 0 1 0 4.954 2.048A7 7 0 0 0 8.993 2zm4.851 4.2h-2.065a10.954 10.954 0 0 0-.966-2.492A5.621 5.621 0 0 1 13.844 6.2zM9 3.428A9.861 9.861 0 0 1 10.337 6.2H7.663A9.861 9.861 0 0 1 9 3.428zM3.582 10.4a5.476 5.476 0 0 1 0-2.8h2.366A11.561 11.561 0 0 0 5.85 9a11.562 11.562 0 0 0 .1 1.4zm.574 1.4h2.065a10.954 10.954 0 0 0 .966 2.492A5.591 5.591 0 0 1 4.156 11.8zm2.065-5.6H4.156a5.591 5.591 0 0 1 3.031-2.492A10.954 10.954 0 0 0 6.221 6.2zM9 14.572A9.861 9.861 0 0 1 7.663 11.8h2.674A9.861 9.861 0 0 1 9 14.572zm1.638-4.172H7.362A10.3 10.3 0 0 1 7.25 9a10.21 10.21 0 0 1 .112-1.4h3.276A10.21 10.21 0 0 1 10.75 9a10.3 10.3 0 0 1-.112 1.4zm.175 3.892a10.954 10.954 0 0 0 .966-2.492h2.065a5.621 5.621 0 0 1-3.031 2.492zm1.239-3.892a11.561 11.561 0 0 0 .1-1.4 11.561 11.561 0 0 0-.1-1.4h2.366a5.476 5.476 0 0 1 0 2.8z" class="cls-3" data-name="Path 5"/>
    </g>
</svg>
