<svg xmlns="http://www.w3.org/2000/svg" xmlns:xlink="http://www.w3.org/1999/xlink" width="15" height="16" viewBox="0 0 15 16">
  <defs>
    <clipPath id="clip-path">
      <rect id="Rectangle_71" data-name="Rectangle 71" width="15" height="16" transform="translate(-0.333)" fill="#fff"/>
    </clipPath>
  </defs>
  <g id="Group_21774" data-name="Group 21774" transform="translate(-189 -2892)">
    <g id="Group_190" data-name="Group 190" transform="translate(189.333 2892)" clip-path="url(#clip-path)">
      <path id="Path_648" data-name="Path 648" d="M205.921,2893.73a1.2,1.2,0,0,0-.879-.39h-4.463a1.2,1.2,0,0,0-.879.39,1.379,1.379,0,0,0-.365.94v4.78a1.383,1.383,0,0,0,.365.94l5.415,5.81a1.439,1.439,0,0,0,2.128,0l4.095-4.39a1.7,1.7,0,0,0,0-2.28Z" transform="translate(-198.089 -2892)" fill="none" stroke="#99a1af" stroke-linecap="round" stroke-linejoin="round" stroke-width="1.333"/>
      <path id="Path_649" data-name="Path 649" d="M202.977,2897.33a.336.336,0,1,0-.311-.33A.323.323,0,0,0,202.977,2897.33Z" transform="translate(-198.311 -2892)" fill="#99a1af" stroke="#99a1af" stroke-linecap="round" stroke-linejoin="round" stroke-width="1.333"/>
    </g>
  </g>
</svg>
