<svg id="Group_164" data-name="Group 164" xmlns="http://www.w3.org/2000/svg" width="57.024" height="57.02" viewBox="0 0 57.024 57.02">
  <g id="Group_21751" data-name="Group 21751">
    <path id="Path_523" data-name="Path 523" d="M405.383,2241.52a14,14,0,0,1,13.994-14.01l29.011-.01a13.993,13.993,0,0,1,14.006,13.99l.013,29.01a14.009,14.009,0,0,1-13.994,14.01l-29.011.01a14,14,0,0,1-14.006-13.99Z" transform="translate(-405.383 -2227.5)" fill="#ffff42"/>
    <path id="Path_524" data-name="Path 524" d="M429.229,2244.34v4.67" transform="translate(-405.383 -2227.5)" fill="none" stroke="#171717" stroke-linecap="round" stroke-linejoin="round" stroke-width="2.333"/>
    <path id="Path_525" data-name="Path 525" d="M438.561,2244.34v4.67" transform="translate(-405.383 -2227.5)" fill="none" stroke="#171717" stroke-linecap="round" stroke-linejoin="round" stroke-width="2.333"/>
    <path id="Path_526" data-name="Path 526" d="M442.061,2246.67H425.728a2.339,2.339,0,0,0-2.334,2.34v16.33a2.33,2.33,0,0,0,2.334,2.33h16.333a2.33,2.33,0,0,0,2.333-2.33v-16.33A2.337,2.337,0,0,0,442.061,2246.67Z" transform="translate(-405.383 -2227.5)" fill="none" stroke="#171717" stroke-linecap="round" stroke-linejoin="round" stroke-width="2.333"/>
    <path id="Path_527" data-name="Path 527" d="M423.395,2253.67h21" transform="translate(-405.383 -2227.5)" fill="none" stroke="#171717" stroke-linecap="round" stroke-linejoin="round" stroke-width="2.333"/>
  </g>
</svg>
