<svg xmlns="http://www.w3.org/2000/svg" xmlns:xlink="http://www.w3.org/1999/xlink" width="56" height="56" viewBox="0 0 56 56">
  <defs>
    <clipPath id="clip-path">
      <rect id="Rectangle_63" data-name="Rectangle 63" width="28" height="28" transform="translate(670.801 2089)" fill="#fff"/>
    </clipPath>
  </defs>
  <g id="Group_166" data-name="Group 166" transform="translate(-656.801 -2075)">
    <g id="Group_21746" data-name="Group 21746">
      <path id="Path_529" data-name="Path 529" d="M656.8,2089a14,14,0,0,1,14-14h28a14,14,0,0,1,14,14v28a14,14,0,0,1-14,14h-28a14,14,0,0,1-14-14Z" fill="#8431fe"/>
      <g id="Group_165" data-name="Group 165" clip-path="url(#clip-path)">
        <path id="Path_530" data-name="Path 530" d="M687.135,2091.34V2096a2.344,2.344,0,0,0,2.333,2.34h4.667" fill="none" stroke="#fff" stroke-linecap="round" stroke-linejoin="round" stroke-width="2.333"/>
        <path id="Path_531" data-name="Path 531" d="M675.779,2113.5a2.305,2.305,0,0,0,2.015,1.17H691.8a2.327,2.327,0,0,0,2.333-2.33v-15.17l-5.833-5.83H677.8a2.327,2.327,0,0,0-2.333,2.33v3.5" fill="none" stroke="#fff" stroke-linecap="round" stroke-linejoin="round" stroke-width="2.333"/>
        <path id="Path_532" data-name="Path 532" d="M675.8,2100a5,5,0,1,1-5,5A5,5,0,0,1,675.8,2100Zm0,1a4,4,0,1,0,2.828,1.17A4,4,0,0,0,675.8,2101Zm0,1a.466.466,0,0,1,.332.13.489.489,0,0,1,.164.31l0,.06v2.29l1.353,1.36a.5.5,0,0,1,.146.33.513.513,0,0,1-.125.35.475.475,0,0,1-.327.17.506.506,0,0,1-.354-.11l-.047-.04-1.5-1.5a.491.491,0,0,1-.142-.28l0-.07v-2.5a.489.489,0,0,1,.146-.35A.48.48,0,0,1,675.8,2102Z" fill="#fff"/>
      </g>
    </g>
  </g>
</svg>
