<svg xmlns="http://www.w3.org/2000/svg" xmlns:xlink="http://www.w3.org/1999/xlink" width="40" height="40" viewBox="0 0 40 40">
  <defs>
    <clipPath id="clip-path">
      <rect id="Rectangle_55" data-name="Rectangle 55" width="20" height="20" transform="translate(1154.05 362.5)" fill="#fff"/>
    </clipPath>
  </defs>
  <g id="Group_176" data-name="Group 176" transform="translate(-1144.05 -352.5)">
    <path id="Path_523" data-name="Path 523" d="M1144.05,362.5a10,10,0,0,1,10-10h20a10,10,0,0,1,10,10v20a10,10,0,0,1-10,10h-20a10,10,0,0,1-10-10Z" fill="#2a3a8d"/>
    <g id="Group_126" data-name="Group 126" clip-path="url(#clip-path)">
      <path id="Path_524" data-name="Path 524" d="M1166.55,377.5h-4.17" fill="none" stroke="#fff" stroke-linecap="round" stroke-linejoin="round" stroke-width="1.667"/>
      <path id="Path_525" data-name="Path 525" d="M1169.05,374.167h-6.67" fill="none" stroke="#fff" stroke-linecap="round" stroke-linejoin="round" stroke-width="1.667"/>
      <path id="Path_526" data-name="Path 526" d="M1157.38,380.834h13.33a1.67,1.67,0,0,0,1.67-1.667V365.834a1.67,1.67,0,0,0-1.67-1.667h-10a1.67,1.67,0,0,0-1.66,1.667v13.333a1.67,1.67,0,0,1-1.67,1.667Zm0,0a1.67,1.67,0,0,1-1.67-1.667v-7.5a1.67,1.67,0,0,1,1.67-1.667h1.67" fill="none" stroke="#fff" stroke-linecap="round" stroke-linejoin="round" stroke-width="1.667"/>
      <path id="Path_527" data-name="Path 527" d="M1168.21,367.5h-5a.83.83,0,0,0-.83.833V370a.831.831,0,0,0,.83.833h5a.839.839,0,0,0,.84-.833v-1.667A.839.839,0,0,0,1168.21,367.5Z" fill="none" stroke="#fff" stroke-linecap="round" stroke-linejoin="round" stroke-width="1.667"/>
    </g>
  </g>
</svg>
