<svg xmlns="http://www.w3.org/2000/svg" xmlns:xlink="http://www.w3.org/1999/xlink" width="40" height="40" viewBox="0 0 40 40">
  <defs>
    <clipPath id="clip-path">
      <rect id="Rectangle_74" data-name="Rectangle 74" width="20" height="20" transform="translate(401 557)" fill="#ffff42"/>
    </clipPath>
  </defs>
  <g id="Group_296" data-name="Group 296" transform="translate(-391 -547)">
    <g id="Group_33425" data-name="Group 33425">
      <path id="Path_978" data-name="Path 978" d="M391,557a10,10,0,0,1,10-10h20a10,10,0,0,1,10,10v20a10,10,0,0,1-10,10H401a10,10,0,0,1-10-10Z" fill="#ffff42"/>
      <g id="Group_249" data-name="Group 249" clip-path="url(#clip-path)">
        <path id="Path_979" data-name="Path 979" d="M413.5,572h-4.167" fill="none" stroke="#000" stroke-linecap="round" stroke-linejoin="round" stroke-width="1.667"/>
        <path id="Path_980" data-name="Path 980" d="M416,568.667h-6.667" fill="none" stroke="#000" stroke-linecap="round" stroke-linejoin="round" stroke-width="1.667"/>
        <path id="Path_981" data-name="Path 981" d="M404.335,575.334h13.333a1.668,1.668,0,0,0,1.667-1.667V560.334a1.668,1.668,0,0,0-1.667-1.667h-10A1.666,1.666,0,0,0,406,560.334v13.333a1.666,1.666,0,0,1-1.666,1.667Zm0,0a1.666,1.666,0,0,1-1.667-1.667v-7.5a1.666,1.666,0,0,1,1.667-1.667H406" fill="none" stroke="#000" stroke-linecap="round" stroke-linejoin="round" stroke-width="1.667"/>
        <path id="Path_982" data-name="Path 982" d="M415.165,562h-5a.833.833,0,0,0-.833.833V564.5a.833.833,0,0,0,.833.833h5A.833.833,0,0,0,416,564.5v-1.667A.833.833,0,0,0,415.165,562Z" fill="none" stroke="#000" stroke-linecap="round" stroke-linejoin="round" stroke-width="1.667"/>
      </g>
    </g>
  </g>
</svg>
