<svg xmlns="http://www.w3.org/2000/svg" width="20.779" height="12.699" viewBox="0 0 20.779 12.699">
  <g id="Group_21781" data-name="Group 21781" transform="translate(-362.804 -4533.333)">
    <path id="Path_567" data-name="Path 567" d="M399.166,4540.252l4.947,3.3a.48.48,0,0,0,.24.071.485.485,0,0,0,.246-.043.534.534,0,0,0,.183-.185.457.457,0,0,0,.067-.241v-7.757a.466.466,0,0,0-.237-.412.478.478,0,0,0-.237-.071.47.47,0,0,0-.237.071l-4.971,2.9" transform="translate(-21.933 0.383)" fill="none" stroke="#0a0a0a" stroke-linecap="round" stroke-linejoin="round" stroke-width="1.333"/>
    <path id="Path_568" data-name="Path 568" d="M401.2,4534h-9.472a1.9,1.9,0,0,0-1.894,1.89v7.587a1.9,1.9,0,0,0,1.894,1.89H401.2a1.9,1.9,0,0,0,1.894-1.89v-7.587A1.9,1.9,0,0,0,401.2,4534Z" transform="translate(-26.363)" fill="none" stroke="#0a0a0a" stroke-linecap="round" stroke-linejoin="round" stroke-width="1.333"/>
  </g>
</svg>
