<svg xmlns="http://www.w3.org/2000/svg" width="40" height="40" viewBox="0 0 40 40">
  <g id="Group_173" data-name="Group 173" transform="translate(-853.348 -352.5)">
    <path id="Path_511" data-name="Path 511" d="M853.348,362.5a10,10,0,0,1,10-10h20a10,10,0,0,1,10,10v20a10,10,0,0,1-10,10h-20a10,10,0,0,1-10-10Z" fill="#2a3a8d"/>
    <path id="Path_512" data-name="Path 512" d="M876.68,373.333l4.352,2.9a.41.41,0,0,0,.211.069.421.421,0,0,0,.217-.048.416.416,0,0,0,.16-.154.411.411,0,0,0,.06-.214v-6.83a.421.421,0,0,0-.056-.208.417.417,0,0,0-.153-.153.406.406,0,0,0-.209-.055.412.412,0,0,0-.209.056l-4.373,2.552" fill="none" stroke="#fff" stroke-linecap="round" stroke-linejoin="round" stroke-width="1.667"/>
    <path id="Path_513" data-name="Path 513" d="M875.016,367.5h-8.334a1.666,1.666,0,0,0-1.666,1.667v6.666a1.666,1.666,0,0,0,1.666,1.667h8.334a1.666,1.666,0,0,0,1.666-1.667v-6.666A1.666,1.666,0,0,0,875.016,367.5Z" fill="none" stroke="#fff" stroke-linecap="round" stroke-linejoin="round" stroke-width="1.667"/>
  </g>
</svg>
