<svg id="Component_24_2" data-name="Component 24 – 2" xmlns="http://www.w3.org/2000/svg" width="48" height="48" viewBox="0 0 48 48">
  <g id="Group_21867" data-name="Group 21867" transform="translate(14990 5786)">
    <path id="Path_22128" data-name="Path 22128" d="M0,0H48V48H0Z" transform="translate(-14990 -5786)" fill="none"/>
  </g>
  <g id="Group_21871" data-name="Group 21871" transform="translate(14948.184 5775)">
    <circle id="Ellipse_1032" data-name="Ellipse 1032" cx="0.5" cy="0.5" r="0.5" transform="translate(-14904.2 -5761.1)" fill="#0875e2"/>
    <g id="Group_21870" data-name="Group 21870">
      <g id="Group_21869" data-name="Group 21869">
        <g id="Group_21868" data-name="Group 21868" transform="translate(-14946.185 -5757.036)">
          <rect id="Rectangle_3625" data-name="Rectangle 3625" width="10.31" height="11.896" rx="2" transform="translate(2.994 7.868)" fill="none" stroke="#aab0d1" stroke-miterlimit="10" stroke-width="0.5"/>
          <path id="Path_11477" data-name="Path 11477" d="M480.34,404.058l.136.061a2.732,2.732,0,0,1,1.484,1.574.528.528,0,0,1,.075.264.222.222,0,0,1-.315.193.161.161,0,0,1-.085-.082,2.271,2.271,0,0,0-.562-.9,2.434,2.434,0,0,0-1.861-.776,2.512,2.512,0,0,0-2.312,1.539c-.016.033-.027.068-.044.1a.228.228,0,0,1-.239.109.2.2,0,0,1-.174-.164.462.462,0,0,1,.037-.177,2.818,2.818,0,0,1,1.543-1.7l.077-.037a2.173,2.173,0,0,1-1.068-1.917,2.1,2.1,0,0,1,.668-1.557,2.2,2.2,0,0,1,3.116.075,2.121,2.121,0,0,1,.573,1.811A2.159,2.159,0,0,1,480.34,404.058Zm-1.1-.217a1.676,1.676,0,1,0-1.7-1.65A1.706,1.706,0,0,0,479.243,403.842Z" transform="translate(-471.091 -389.024)"/>
          <path id="Path_11478" data-name="Path 11478" d="M477.761,348.508a.119.119,0,0,0-.009-.109c-.052-.078-.2-.094-.235-.1a.2.2,0,0,0-.044-.126.21.21,0,0,0-.165-.077.355.355,0,0,0-.225.129c-.029-.025-.1,0-.129.014a.188.188,0,0,0-.077-.123c.05-.086-.036-.182-.048-.194-.067-.172-.724-.1-.83-.072s-.082.114-.073.17a.154.154,0,0,1,0,.037c-.024.01-.063.11-.076.147-.024,0-.135-.011-.17.021a.356.356,0,0,0-.225-.129.209.209,0,0,0-.165.077.2.2,0,0,0-.043.125c-.039,0-.184.02-.235.1a.119.119,0,0,0-.009.109.393.393,0,0,0-.06.089.162.162,0,0,0,.009.183.983.983,0,0,0,.116.117c.034.03.057.05.059.071a.154.154,0,0,0,.072.1.079.079,0,0,0,.077,0h0v0s.031-.089.109-.085a1.016,1.016,0,0,0,.162,1.108.9.9,0,0,0,.045.42.174.174,0,0,1-.015.174.3.3,0,0,0-.045.158.019.019,0,0,1,0,.016c-.011.011-.044.008-.074.005a.15.15,0,0,0-.082.005c-.052.032-.074.069-.068.111a.128.128,0,0,0-.055.07.1.1,0,0,0,.013.078.282.282,0,0,0-.077.069.376.376,0,0,0-.073.256.054.054,0,0,0-.031.014.087.087,0,0,0-.023.067.076.076,0,0,0,.023.065.042.042,0,0,0,.027.008.465.465,0,0,0,.317.41.153.153,0,0,0,.01.122.15.15,0,0,0,.127.057c.064,0,.158,0,.256,0h1.037c.143,0,.272,0,.335,0a.129.129,0,0,0,.137-.18.465.465,0,0,0,.317-.41.042.042,0,0,0,.027-.008.077.077,0,0,0,.023-.065.087.087,0,0,0-.023-.067.055.055,0,0,0-.031-.014.376.376,0,0,0-.073-.256.279.279,0,0,0-.077-.069.1.1,0,0,0,.013-.078.128.128,0,0,0-.055-.07c.006-.042-.016-.078-.068-.111a.149.149,0,0,0-.082-.005c-.03,0-.064.006-.074-.005a.018.018,0,0,1,0-.016.3.3,0,0,0-.045-.158.171.171,0,0,1-.015-.174.9.9,0,0,0,.046-.42,1.141,1.141,0,0,0,.254-.8.816.816,0,0,0-.092-.313c.078,0,.108.081.109.085v0h0a.079.079,0,0,0,.077,0,.155.155,0,0,0,.072-.1c0-.021.025-.041.059-.071a.993.993,0,0,0,.116-.117C477.9,348.673,477.783,348.532,477.761,348.508Z" transform="translate(-468.812 -345.543)" fill="#aab0d1"/>
          <rect id="Rectangle_3629" data-name="Rectangle 3629" width="34.283" height="0.361" transform="translate(2.857 21.527)" fill="#aab0d1" stroke="rgba(0,0,0,0)" stroke-width="1"/>
          <rect id="Rectangle_3632" data-name="Rectangle 3632" width="16.405" height="1.447" rx="0.724" transform="translate(10.264 5.326)" fill="#aab0d1"/>
          <rect id="Rectangle_4088" data-name="Rectangle 4088" width="12.464" height="1.447" rx="0.724" transform="translate(14.493 16.235)" fill="#aab0d1"/>
          <rect id="Rectangle_4089" data-name="Rectangle 4089" width="7.064" height="1.146" rx="0.573" transform="translate(14.661 13.536)" fill="#aab0d1"/>
          <rect id="Rectangle_4090" data-name="Rectangle 4090" width="8.267" height="1.146" rx="0.573" transform="translate(14.634 12.045)" fill="#aab0d1"/>
          <rect id="Rectangle_4091" data-name="Rectangle 4091" width="7.064" height="1.146" rx="0.573" transform="translate(14.661 10.555)" fill="#aab0d1"/>
          <g id="Group_21669" data-name="Group 21669" transform="translate(27.38 9.069)">
            <rect id="Rectangle_4763" data-name="Rectangle 4763" width="10.231" height="10.231" rx="1" transform="matrix(1, 0, 0, 1, 0, 0)" fill="#f5f5f5" opacity="0.878"/>
            <g id="Group_21668" data-name="Group 21668" transform="matrix(1, 0, 0, 1, 0.666, 0.453)">
              <g id="Group_18660" data-name="Group 18660" transform="translate(0 0)">
                <path id="Path_16433" data-name="Path 16433" d="M2.861,0H0V2.861H2.861ZM2.289,2.289H.572V.572H2.289Z" transform="translate(0 0.026)" fill="#2b2b2b"/>
                <rect id="Rectangle_3793" data-name="Rectangle 3793" width="0.796" height="0.398" transform="translate(1.035 1.195)" fill="#2b2b2b"/>
                <path id="Path_16434" data-name="Path 16434" d="M0,0V2.861H2.861V0ZM2.289,2.289H.572V.572H2.289Z" transform="translate(6.295 0.026)" fill="#2b2b2b"/>
                <rect id="Rectangle_3794" data-name="Rectangle 3794" width="0.796" height="0.398" transform="translate(7.407 1.195)" fill="#2b2b2b"/>
                <path id="Path_16435" data-name="Path 16435" d="M0,2.861H2.861V0H0ZM.572.572H2.289V2.289H.572Z" transform="translate(0 6.321)" fill="#2b2b2b"/>
                <rect id="Rectangle_3795" data-name="Rectangle 3795" width="0.796" height="0.796" transform="translate(1.035 7.168)" fill="#2b2b2b"/>
                <rect id="Rectangle_3796" data-name="Rectangle 3796" width="0.398" height="0.796" transform="translate(5.017 0)" fill="#2b2b2b"/>
                <path id="Path_16436" data-name="Path 16436" d="M1.145,1.717h.572V1.145h.572V.572H.572V0H0V1.145H1.145Z" transform="translate(3.434 0.599)" fill="#2b2b2b"/>
                <rect id="Rectangle_3797" data-name="Rectangle 3797" width="0.796" height="0.796" transform="translate(3.425 2.389)" fill="#2b2b2b"/>
                <path id="Path_16437" data-name="Path 16437" d="M2.289,0H1.717V.572H0v.572H2.289Z" transform="translate(3.434 2.888)" fill="#2b2b2b"/>
                <path id="Path_16438" data-name="Path 16438" d="M.572,1.717h.572V1.145H.572V0H0V2.289H.572Z" transform="translate(0 3.46)" fill="#2b2b2b"/>
                <rect id="Rectangle_3798" data-name="Rectangle 3798" width="0.796" height="0.398" transform="translate(1.035 3.584)" fill="#2b2b2b"/>
                <path id="Path_16439" data-name="Path 16439" d="M1.717,2.289H2.861V1.717H2.289V1.145H1.145V0H.572V1.145H0V2.289H.572V1.717H1.717Z" transform="translate(1.717 3.46)" fill="#2b2b2b"/>
                <rect id="Rectangle_3799" data-name="Rectangle 3799" width="0.398" height="1.195" transform="translate(5.017 4.38)" fill="#2b2b2b"/>
                <path id="Path_16440" data-name="Path 16440" d="M1.717,0H0V.572H1.145V2.289H0v.572H1.717V2.289H2.861V1.717H1.717Z" transform="translate(3.434 6.321)" fill="#2b2b2b"/>
                <rect id="Rectangle_3800" data-name="Rectangle 3800" width="0.796" height="0.796" transform="translate(3.425 7.168)" fill="#2b2b2b"/>
                <rect id="Rectangle_3801" data-name="Rectangle 3801" width="0.796" height="0.796" transform="translate(5.416 6.371)" fill="#2b2b2b"/>
                <path id="Path_16441" data-name="Path 16441" d="M1.717,0H0V1.717H.572V.572H1.717Z" transform="translate(6.867 7.466)" fill="#2b2b2b"/>
                <rect id="Rectangle_3802" data-name="Rectangle 3802" width="0.796" height="0.398" transform="translate(8.203 8.761)" fill="#2b2b2b"/>
                <rect id="Rectangle_3803" data-name="Rectangle 3803" width="0.398" height="0.796" transform="translate(8.601 6.371)" fill="#2b2b2b"/>
                <path id="Path_16442" data-name="Path 16442" d="M.572,1.717h.572V0H0V.572H.572Z" transform="translate(6.295 5.177)" fill="#2b2b2b"/>
                <path id="Path_16443" data-name="Path 16443" d="M1.717.572H1.145V0H.572V.572H0v.572H2.289V.572h.572V0H1.717Z" transform="translate(6.295 3.46)" fill="#2b2b2b"/>
                <rect id="Rectangle_3804" data-name="Rectangle 3804" width="0.796" height="0.398" transform="translate(8.203 5.177)" fill="#2b2b2b"/>
              </g>
            </g>
          </g>
          <rect id="Rectangle_4866" data-name="Rectangle 4866" width="13.921" height="1.447" rx="0.724" transform="translate(10.404 3.16)" fill="#6772ac"/>
          <path id="Path_22125" data-name="Path 22125" d="M25.879,21.891c0-1.117.067-14.009.067-19.787A1.862,1.862,0,0,0,25.4.529a2.851,2.851,0,0,0-1.3-.5L2.988.01S1.193-.106.6.448.014,2.529.014,2.529V37.688A3.243,3.243,0,0,0,.6,39.968,3.644,3.644,0,0,0,2.99,40.5H17.5" transform="translate(0 25.947) rotate(-90)" fill="none" stroke="#002e76" stroke-linecap="round" stroke-linejoin="round" stroke-width="1"/>
        </g>
        <g id="Path_22129" data-name="Path 22129" transform="translate(-14921 -5770)" fill="none">
          <path d="M10,0A10,10,0,1,1,0,10,10,10,0,0,1,10,0Z" stroke="none"/>
          <path d="M 10 1 C 5.037380218505859 1 1 5.037380218505859 1 10 C 1 14.96261978149414 5.037380218505859 19 10 19 C 14.96261978149414 19 19 14.96261978149414 19 10 C 19 5.037380218505859 14.96261978149414 1 10 1 M 10 0 C 15.52285003662109 0 20 4.477149963378906 20 10 C 20 15.52285003662109 15.52285003662109 20 10 20 C 4.477149963378906 20 0 15.52285003662109 0 10 C 0 4.477149963378906 4.477149963378906 0 10 0 Z" stroke="none" fill="#002e76"/>
        </g>
      </g>
      <path id="Path_22130" data-name="Path 22130" d="M8.168,0A8.006,8.006,0,0,1,15.7,5.333l-.954.3a6.986,6.986,0,1,0,.276,3.784L16,9.629a8.017,8.017,0,0,1-7.015,6.33,8.161,8.161,0,0,1-1.634,0A8.011,8.011,0,0,1,.17,8.042c0-.014,0-.028,0-.042A8.009,8.009,0,0,1,8.168,0Z" transform="translate(-14919.168 -5768)" fill="#0875e2"/>
      <path id="Path_22131" data-name="Path 22131" d="M-287.638,230.149a3.775,3.775,0,0,1,.41-1.954,4.011,4.011,0,0,1,1.72-1.705.28.28,0,0,0,.175-.3c-.013-.29-.009-.582,0-.872a.2.2,0,0,0-.123-.215,4.188,4.188,0,0,1-1.477-1.256,3.667,3.667,0,0,1-.687-1.858c-.015-.181-.019-.363-.029-.555h5.695c0,.134.008.267,0,.4a3.807,3.807,0,0,1-.745,2.068,4.261,4.261,0,0,1-1.427,1.2.21.21,0,0,0-.134.22c.01.313.008.626,0,.94a.179.179,0,0,0,.109.19,4.239,4.239,0,0,1,1.494,1.271,3.774,3.774,0,0,1,.7,2.377c0,.015,0,.029-.007.052Z" transform="translate(-14626.351 -5985.537)" fill="#002e76"/>
    </g>
  </g>
</svg>
