<svg xmlns="http://www.w3.org/2000/svg" id="prefix__Component_25_1" width="48" height="48" data-name="Component 25 – 1" viewBox="0 0 48 48">
    <defs>
        <style>
            .prefix__cls-4{fill:#aab0d1}.prefix__cls-7{fill:#2b2b2b}
        </style>
    </defs>
    <path id="prefix__Subtraction_5" d="M69 12a8 8 0 1 1 8-8 8.009 8.009 0 0 1-8 8zM65.873-.011c-.338 0-.358.533-.358.538 0 .052-.095 5.164 0 6.092a2.992 2.992 0 0 0 .773 1.728l.038.046.031.039a3.491 3.491 0 0 0 2.971 1.241h.078a2.972 2.972 0 0 0 2.381-1.5 6.261 6.261 0 0 0 .879-1.72c.057-.287.613-3.8.637-3.954a.58.58 0 0 0-.336-.259h-.024c-.187 0-.442.256-.445.259a6.029 6.029 0 0 0-.543 1.355c-.139.65-.447.946-.675.946h-.015c-.252-.013-.313-.378-.313-.382V-.64a.466.466 0 0 0-.458-.472h-.011a.527.527 0 0 0-.5.472v3.753s-.04.16-.291.16h-.023a.229.229 0 0 1-.183-.077.259.259 0 0 1-.039-.196v-4.321a.511.511 0 0 0-.094-.361.458.458 0 0 0-.353-.146h-.024a.459.459 0 0 0-.344.129.58.58 0 0 0-.139.378v4.434a.57.57 0 0 1-.344.159h-.015a.447.447 0 0 1-.315-.16c0-.031.008-3.513 0-3.753a.463.463 0 0 0-.5-.472H67.3c-.344 0-.391.467-.391.472v4.249s-.013.092-.262.11h-.049c-.209 0-.268-.111-.269-.112V.527c-.003-.371-.143-.537-.456-.538z" data-name="Subtraction 5" transform="translate(-33 11)" style="fill:#0875e2"/>
    <g id="prefix__Group_21873" data-name="Group 21873" transform="translate(14969 5783)">
        <g id="prefix__Group_21867" data-name="Group 21867" transform="translate(21 3)">
            <path id="prefix__Path_22128" d="M0 0h48v48H0z" data-name="Path 22128" transform="translate(-14990 -5786)" style="fill:none"/>
        </g>
        <g id="prefix__Group_21871" data-name="Group 21871" transform="translate(-21.816 -8)">
            <g id="prefix__Group_21870" data-name="Group 21870">
                <g id="prefix__Group_21869" data-name="Group 21869">
                    <g id="prefix__Group_21868" data-name="Group 21868" transform="translate(-14946.185 -5757.036)">
                        <rect id="prefix__Rectangle_3625" width="10.31" height="11.896" data-name="Rectangle 3625" rx="2" transform="translate(2.994 7.868)" style="stroke:#aab0d1;stroke-miterlimit:10;stroke-width:.5px;fill:none"/>
                        <path id="prefix__Path_11477" d="M480.34 404.058l.136.061a2.732 2.732 0 0 1 1.484 1.574.528.528 0 0 1 .075.264.222.222 0 0 1-.315.193.161.161 0 0 1-.085-.082 2.271 2.271 0 0 0-.562-.9 2.434 2.434 0 0 0-1.861-.776 2.512 2.512 0 0 0-2.312 1.539c-.016.033-.027.068-.044.1a.228.228 0 0 1-.239.109.2.2 0 0 1-.174-.164.462.462 0 0 1 .037-.177 2.818 2.818 0 0 1 1.543-1.7l.077-.037a2.173 2.173 0 0 1-1.068-1.917 2.1 2.1 0 0 1 .668-1.557 2.2 2.2 0 0 1 3.116.075 2.121 2.121 0 0 1 .573 1.811 2.159 2.159 0 0 1-1.049 1.584zm-1.1-.217a1.676 1.676 0 1 0-1.7-1.65 1.706 1.706 0 0 0 1.703 1.651z" data-name="Path 11477" transform="translate(-471.091 -389.024)"/>
                        <path id="prefix__Path_11478" d="M477.761 348.508a.119.119 0 0 0-.009-.109c-.052-.078-.2-.094-.235-.1a.2.2 0 0 0-.044-.126.21.21 0 0 0-.165-.077.355.355 0 0 0-.225.129c-.029-.025-.1 0-.129.014a.188.188 0 0 0-.077-.123c.05-.086-.036-.182-.048-.194-.067-.172-.724-.1-.83-.072s-.082.114-.073.17a.154.154 0 0 1 0 .037c-.024.01-.063.11-.076.147-.024 0-.135-.011-.17.021a.356.356 0 0 0-.225-.129.209.209 0 0 0-.165.077.2.2 0 0 0-.043.125c-.039 0-.184.02-.235.1a.119.119 0 0 0-.009.109.393.393 0 0 0-.06.089.162.162 0 0 0 .009.183.983.983 0 0 0 .116.117c.034.03.057.05.059.071a.154.154 0 0 0 .072.1.079.079 0 0 0 .077 0s.031-.089.109-.085a1.016 1.016 0 0 0 .162 1.108.9.9 0 0 0 .045.42.174.174 0 0 1-.015.174.3.3 0 0 0-.045.158.019.019 0 0 1 0 .016c-.011.011-.044.008-.074.005a.15.15 0 0 0-.082.005c-.052.032-.074.069-.068.111a.128.128 0 0 0-.055.07.1.1 0 0 0 .013.078.282.282 0 0 0-.077.069.376.376 0 0 0-.073.256.054.054 0 0 0-.031.014.087.087 0 0 0-.023.067.076.076 0 0 0 .023.065.042.042 0 0 0 .027.008.465.465 0 0 0 .317.41.153.153 0 0 0 .01.122.15.15 0 0 0 .127.057h1.628a.129.129 0 0 0 .137-.18.465.465 0 0 0 .317-.41.042.042 0 0 0 .027-.008.077.077 0 0 0 .023-.065.087.087 0 0 0-.023-.067.055.055 0 0 0-.031-.014.376.376 0 0 0-.073-.256.279.279 0 0 0-.077-.069.1.1 0 0 0 .013-.078.128.128 0 0 0-.055-.07c.006-.042-.016-.078-.068-.111a.149.149 0 0 0-.082-.005c-.03 0-.064.006-.074-.005a.018.018 0 0 1 0-.016.3.3 0 0 0-.045-.158.171.171 0 0 1-.015-.174.9.9 0 0 0 .046-.42 1.141 1.141 0 0 0 .254-.8.816.816 0 0 0-.092-.313c.078 0 .108.081.109.085a.079.079 0 0 0 .077 0 .155.155 0 0 0 .072-.1c0-.021.025-.041.059-.071a.993.993 0 0 0 .116-.117c.091-.1-.026-.241-.048-.265z" class="prefix__cls-4" data-name="Path 11478" transform="translate(-468.812 -345.543)"/>
                        <path id="prefix__Rectangle_3629" d="M0 0H34.283V0.361H0z" data-name="Rectangle 3629" transform="translate(2.857 21.527)" style="stroke:transparent;fill:#aab0d1"/>
                        <rect id="prefix__Rectangle_3632" width="16.405" height="1.447" class="prefix__cls-4" data-name="Rectangle 3632" rx=".724" transform="translate(10.264 5.326)"/>
                        <rect id="prefix__Rectangle_4088" width="12.464" height="1.447" class="prefix__cls-4" data-name="Rectangle 4088" rx=".724" transform="translate(14.493 16.235)"/>
                        <rect id="prefix__Rectangle_4089" width="7.064" height="1.146" class="prefix__cls-4" data-name="Rectangle 4089" rx=".573" transform="translate(14.661 13.536)"/>
                        <rect id="prefix__Rectangle_4090" width="8.267" height="1.146" class="prefix__cls-4" data-name="Rectangle 4090" rx=".573" transform="translate(14.634 12.045)"/>
                        <rect id="prefix__Rectangle_4091" width="7.064" height="1.146" class="prefix__cls-4" data-name="Rectangle 4091" rx=".573" transform="translate(14.661 10.555)"/>
                        <g id="prefix__Group_21669" data-name="Group 21669" transform="translate(27.38 9.069)">
                            <rect id="prefix__Rectangle_4763" width="10.231" height="10.231" data-name="Rectangle 4763" rx="1" style="fill:#f5f5f5;opacity:.878"/>
                            <g id="prefix__Group_21668" data-name="Group 21668" transform="translate(.666 .453)">
                                <g id="prefix__Group_18660" data-name="Group 18660">
                                    <path id="prefix__Path_16433" d="M2.861 0H0v2.861h2.861zm-.572 2.289H.572V.572h1.717z" class="prefix__cls-7" data-name="Path 16433" transform="translate(0 .026)"/>
                                    <path id="prefix__Rectangle_3793" d="M0 0H0.796V0.398H0z" class="prefix__cls-7" data-name="Rectangle 3793" transform="translate(1.035 1.195)"/>
                                    <path id="prefix__Path_16434" d="M0 0v2.861h2.861V0zm2.289 2.289H.572V.572h1.717z" class="prefix__cls-7" data-name="Path 16434" transform="translate(6.295 .026)"/>
                                    <path id="prefix__Rectangle_3794" d="M0 0H0.796V0.398H0z" class="prefix__cls-7" data-name="Rectangle 3794" transform="translate(7.407 1.195)"/>
                                    <path id="prefix__Path_16435" d="M0 2.861h2.861V0H0zM.572.572h1.717v1.717H.572z" class="prefix__cls-7" data-name="Path 16435" transform="translate(0 6.321)"/>
                                    <path id="prefix__Rectangle_3795" d="M0 0H0.796V0.796H0z" class="prefix__cls-7" data-name="Rectangle 3795" transform="translate(1.035 7.168)"/>
                                    <path id="prefix__Rectangle_3796" d="M0 0H0.398V0.796H0z" class="prefix__cls-7" data-name="Rectangle 3796" transform="translate(5.017)"/>
                                    <path id="prefix__Path_16436" d="M1.145 1.717h.572v-.572h.572V.572H.572V0H0v1.145h1.145z" class="prefix__cls-7" data-name="Path 16436" transform="translate(3.434 .599)"/>
                                    <path id="prefix__Rectangle_3797" d="M0 0H0.796V0.796H0z" class="prefix__cls-7" data-name="Rectangle 3797" transform="translate(3.425 2.389)"/>
                                    <path id="prefix__Path_16437" d="M2.289 0h-.572v.572H0v.572h2.289z" class="prefix__cls-7" data-name="Path 16437" transform="translate(3.434 2.888)"/>
                                    <path id="prefix__Path_16438" d="M.572 1.717h.572v-.572H.572V0H0v2.289h.572z" class="prefix__cls-7" data-name="Path 16438" transform="translate(0 3.46)"/>
                                    <path id="prefix__Rectangle_3798" d="M0 0H0.796V0.398H0z" class="prefix__cls-7" data-name="Rectangle 3798" transform="translate(1.035 3.584)"/>
                                    <path id="prefix__Path_16439" d="M1.717 2.289h1.144v-.572h-.572v-.572H1.145V0H.572v1.145H0v1.144h.572v-.572h1.145z" class="prefix__cls-7" data-name="Path 16439" transform="translate(1.717 3.46)"/>
                                    <path id="prefix__Rectangle_3799" d="M0 0H0.398V1.195H0z" class="prefix__cls-7" data-name="Rectangle 3799" transform="translate(5.017 4.38)"/>
                                    <path id="prefix__Path_16440" d="M1.717 0H0v.572h1.145v1.717H0v.572h1.717v-.572h1.144v-.572H1.717z" class="prefix__cls-7" data-name="Path 16440" transform="translate(3.434 6.321)"/>
                                    <path id="prefix__Rectangle_3800" d="M0 0H0.796V0.796H0z" class="prefix__cls-7" data-name="Rectangle 3800" transform="translate(3.425 7.168)"/>
                                    <path id="prefix__Rectangle_3801" d="M0 0H0.796V0.796H0z" class="prefix__cls-7" data-name="Rectangle 3801" transform="translate(5.416 6.371)"/>
                                    <path id="prefix__Path_16441" d="M1.717 0H0v1.717h.572V.572h1.145z" class="prefix__cls-7" data-name="Path 16441" transform="translate(6.867 7.466)"/>
                                    <path id="prefix__Rectangle_3802" d="M0 0H0.796V0.398H0z" class="prefix__cls-7" data-name="Rectangle 3802" transform="translate(8.203 8.761)"/>
                                    <path id="prefix__Rectangle_3803" d="M0 0H0.398V0.796H0z" class="prefix__cls-7" data-name="Rectangle 3803" transform="translate(8.601 6.371)"/>
                                    <path id="prefix__Path_16442" d="M.572 1.717h.572V0H0v.572h.572z" class="prefix__cls-7" data-name="Path 16442" transform="translate(6.295 5.177)"/>
                                    <path id="prefix__Path_16443" d="M1.717.572h-.572V0H.572v.572H0v.572h2.289V.572h.572V0H1.717z" class="prefix__cls-7" data-name="Path 16443" transform="translate(6.295 3.46)"/>
                                    <path id="prefix__Rectangle_3804" d="M0 0H0.796V0.398H0z" class="prefix__cls-7" data-name="Rectangle 3804" transform="translate(8.203 5.177)"/>
                                </g>
                            </g>
                        </g>
                        <rect id="prefix__Rectangle_4866" width="13.921" height="1.447" data-name="Rectangle 4866" rx=".724" transform="translate(10.404 3.16)" style="fill:#6772ac"/>
                        <path id="prefix__Path_22125" d="M25.879 21.891c0-1.117.067-14.009.067-19.787A1.862 1.862 0 0 0 25.4.529a2.851 2.851 0 0 0-1.3-.5L2.988.01S1.193-.106.6.448.014 2.529.014 2.529v35.159a3.243 3.243 0 0 0 .586 2.28 3.644 3.644 0 0 0 2.39.532H17.5" data-name="Path 22125" transform="rotate(-90 12.974 12.973)" style="stroke:#002e76;stroke-linecap:round;stroke-linejoin:round;fill:none"/>
                    </g>
                    <g id="prefix__Path_22129" data-name="Path 22129" style="fill:none">
                        <path d="M10 0A10 10 0 1 1 0 10 10 10 0 0 1 10 0z" style="stroke:none" transform="translate(-14921.184 -5770)"/>
                        <path d="M10 1c-4.963 0-9 4.037-9 9s4.037 9 9 9 9-4.037 9-9-4.037-9-9-9m0-1c5.523 0 10 4.477 10 10s-4.477 10-10 10S0 15.523 0 10 4.477 0 10 0z" style="fill:#002e76;stroke:none" transform="translate(-14921.184 -5770)"/>
                    </g>
                </g>
            </g>
        </g>
    </g>
</svg>
